<?xml version="1.0" encoding="utf-8"?>
<!-- Generator: Adobe Illustrator 26.3.1, SVG Export Plug-In . SVG Version: 6.00 Build 0)  -->
<svg version="1.1" id="Layer_1" xmlns="http://www.w3.org/2000/svg" xmlns:xlink="http://www.w3.org/1999/xlink" x="0px" y="0px"
	 viewBox="0 0 118.2 38.1" style="enable-background:new 0 0 118.2 38.1;" xml:space="preserve">
<g>
	<g>
		<g>
			<path d="M68.309,35.642l5.351-3.601l0.103-0.309c0.051-0.206,1.698-4.682,1.698-11.01V8.632l-0.463-0.514v12.605
				c0,6.225-1.595,10.701-1.698,10.856l-0.051,0.154l-5.608,3.756L68.309,35.642z"/>
		</g>
		<polygon points="23.343,31.218 27.974,30.394 27.974,15.629 27.51,14.908 27.51,29.983 22.932,30.806 		"/>
		<polygon points="40.887,5.545 40.887,27.976 37.749,28.336 38.057,28.748 41.402,28.388 41.402,5.905 		"/>
		<polygon points="45.209,27.873 49.17,27.41 49.17,6.625 48.707,6.214 48.707,26.999 44.797,27.462 		"/>
		<polygon points="64.554,26.176 68.001,25.97 68.001,8.374 67.538,7.86 67.538,25.507 64.142,25.713 		"/>
		<polygon points="56.425,15.783 56.425,26.227 52.206,26.69 52.617,27.102 56.888,26.69 56.888,16.555 		"/>
		<polygon points="84.464,17.79 85.75,14.394 85.596,13.622 83.95,17.79 		"/>
		<polygon points="82.509,22.008 81.429,24.941 76.644,25.095 76.798,25.61 81.789,25.404 83.024,22.008 		"/>
		<polygon points="88.374,8.529 94.908,24.581 90.175,24.581 90.432,25.095 95.629,25.044 89.043,8.94 		"/>
		<polygon points="37.492,27.822 27.047,13.416 27.047,29.52 22.571,30.343 22.571,2.458 26.121,3.178 36.205,18.15 36.205,4.722 
			40.373,5.287 40.373,27.513 		"/>
		<polygon points="48.193,26.536 48.193,6.214 44.643,5.751 44.643,26.947 		"/>
		<polygon points="55.036,6.882 52.257,6.625 52.257,26.227 55.962,25.764 55.962,14.342 64.039,25.25 67.023,25.044 67.023,7.808 
			63.267,7.5 63.267,17.892 		"/>
		<path d="M87.86,18.253h-4.579l2.315-5.917L87.86,18.253z M83.384,8.477l-6.688,16.155l4.425-0.206l1.08-2.933h6.74l1.029,2.572
			h4.167L87.86,8.58L83.384,8.477z"/>
		<g>
			<path d="M72.837,31.423c0,0,1.646-4.476,1.646-10.65V8.117l-3.962-0.206v12.811c0,8.643-3.138,14.303-3.138,14.303L72.837,31.423
				z"/>
		</g>
	</g>
	<path d="M90.844,9.146L90.844,9.146c0-0.463,0.412-0.875,0.875-0.875c0.514,0,0.875,0.412,0.875,0.875l0,0
		c0,0.463-0.412,0.875-0.875,0.875S90.844,9.661,90.844,9.146 M92.49,9.146L92.49,9.146c0-0.412-0.309-0.772-0.772-0.772
		s-0.772,0.36-0.772,0.772l0,0c0,0.412,0.309,0.772,0.772,0.772C92.182,9.969,92.49,9.609,92.49,9.146 M91.358,8.683h0.412
		c0.206,0,0.36,0.103,0.36,0.309c0,0.154-0.103,0.257-0.206,0.257l0.257,0.309h-0.257l-0.206-0.309h-0.154v0.309h-0.206
		L91.358,8.683L91.358,8.683z M91.77,9.146c0.103,0,0.154-0.051,0.154-0.103c0-0.103-0.051-0.103-0.154-0.103h-0.206v0.257h0.206
		V9.146z"/>
</g>
</svg>
