<svg width="1333.3" height="833.33" enable-background="new" version="1.1" viewBox="0 0 1333.3333 833.33331" xmlns="http://www.w3.org/2000/svg" xmlns:xlink="http://www.w3.org/1999/xlink"><defs><clipPath id="bk"><path d="m0.06 625h999.94v-624.94h-999.94z"/></clipPath><clipPath id="bj"><path d="m0.06 625h999.94v-624.94h-999.94z"/></clipPath><clipPath id="bi"><path d="m0.06 625h999.94v-624.94h-999.94z"/></clipPath><clipPath id="bh"><path d="m0.06 625h999.94v-624.94h-999.94z"/></clipPath><clipPath id="bg"><path d="m0.06 625h999.94v-624.94h-999.94z"/></clipPath><clipPath id="bf"><path d="m0.06 625h999.94v-624.94h-999.94z"/></clipPath><clipPath id="be"><path d="m0.06 625h999.94v-624.94h-999.94z"/></clipPath><clipPath id="bd"><path d="m0.06 625h999.94v-624.94h-999.94z"/></clipPath><clipPath id="bc"><path d="m0.06 625h999.94v-624.94h-999.94z"/></clipPath><clipPath id="bb"><path d="m0.06 625h999.94v-624.94h-999.94z"/></clipPath><clipPath id="ba"><path d="m0.06 625h999.94v-624.94h-999.94z"/></clipPath><clipPath id="az"><path d="m0.06 625h999.94v-624.94h-999.94z"/></clipPath><clipPath id="ay"><path d="m0.06 625h999.94v-624.94h-999.94z"/></clipPath><clipPath id="ax"><path d="m0.06 625h999.94v-624.94h-999.94z"/></clipPath><clipPath id="aw"><path d="m0.06 625h999.94v-624.94h-999.94z"/></clipPath><clipPath id="av"><path d="m0.06 625h999.94v-624.94h-999.94z"/></clipPath><clipPath id="au"><path d="m0.06 625h999.94v-624.94h-999.94z"/></clipPath><clipPath id="at"><path d="m0.06 625h999.94v-624.94h-999.94z"/></clipPath><clipPath id="as"><path d="m0.06 625h999.94v-624.94h-999.94z"/></clipPath><clipPath id="ar"><path d="m0.06 625h999.94v-624.94h-999.94z"/></clipPath><clipPath id="aq"><path d="m0.06 625h999.94v-624.94h-999.94z"/></clipPath><clipPath id="ap"><path d="m0.06 625h999.94v-624.94h-999.94z"/></clipPath><clipPath id="ao"><path d="m0.06 625h999.94v-624.94h-999.94z"/></clipPath><clipPath id="an"><path d="m0.06 625h999.94v-624.94h-999.94z"/></clipPath><clipPath id="am"><path d="m0.06 625h999.94v-624.94h-999.94z"/></clipPath><clipPath id="al"><path d="m0.06 625h999.94v-624.94h-999.94z"/></clipPath><clipPath id="ak"><path d="m0.06 625h999.94v-624.94h-999.94z"/></clipPath><clipPath id="aj"><path d="m0.06 625h999.94v-624.94h-999.94z"/></clipPath><clipPath id="ai"><path d="m0.06 625h999.94v-624.94h-999.94z"/></clipPath><clipPath id="ah"><path d="m0.06 625h999.94v-624.94h-999.94z"/></clipPath><clipPath id="ag"><path d="m0.06 625h999.94v-624.94h-999.94z"/></clipPath><clipPath id="af"><path d="m0.06 625h999.94v-624.94h-999.94z"/></clipPath><clipPath id="ae"><path d="m0.06 625h999.94v-624.94h-999.94z"/></clipPath><clipPath id="ad"><path d="m0.06 625h999.94v-624.94h-999.94z"/></clipPath><clipPath id="ac"><path d="m0.06 625h999.94v-624.94h-999.94z"/></clipPath><clipPath id="ab"><path d="m0.06 625h999.94v-624.94h-999.94z"/></clipPath><clipPath id="aa"><path d="m0.06 625h999.94v-624.94h-999.94z"/></clipPath><clipPath id="z"><path d="m0.06 625h999.94v-624.94h-999.94z"/></clipPath><clipPath id="y"><path d="m0.06 625h999.94v-624.94h-999.94z"/></clipPath><clipPath id="x"><path d="m0.06 625h999.94v-624.94h-999.94z"/></clipPath><clipPath id="w"><path d="m0.06 625h999.94v-624.94h-999.94z"/></clipPath><clipPath id="v"><path d="m0.06 625h999.94v-624.94h-999.94z"/></clipPath><clipPath id="u"><path d="m0.06 625h999.94v-624.94h-999.94z"/></clipPath><clipPath id="t"><path d="m0.06 625h999.94v-624.94h-999.94z"/></clipPath><clipPath id="s"><path d="m0.06 625h999.94v-624.94h-999.94z"/></clipPath><clipPath id="r"><path d="m0.06 625h999.94v-624.94h-999.94z"/></clipPath><clipPath id="q"><path d="m0.06 625h999.94v-624.94h-999.94z"/></clipPath><clipPath id="p"><path d="m0.06 625h999.94v-624.94h-999.94z"/></clipPath><clipPath id="o"><path d="m0.06 625h999.94v-624.94h-999.94z"/></clipPath><clipPath id="n"><path d="m0.06 625h999.94v-624.94h-999.94z"/></clipPath><clipPath id="m"><path d="m0.06 625h999.94v-624.94h-999.94z"/></clipPath><clipPath id="l"><path d="m0.06 625h999.94v-624.94h-999.94z"/></clipPath><clipPath id="k"><path d="m0.06 625h999.94v-624.94h-999.94z"/></clipPath><clipPath id="j"><path d="m0.06 625h999.94v-624.94h-999.94z"/></clipPath><clipPath id="i"><path d="m0.06 625h999.94v-624.94h-999.94z"/></clipPath><clipPath id="h"><path d="m0.06 625h999.94v-624.94h-999.94z"/></clipPath><clipPath id="g"><path d="m0.06 625h999.94v-624.94h-999.94z"/></clipPath><clipPath id="f"><path d="m0.06 625h999.94v-624.94h-999.94z"/></clipPath><clipPath id="e"><path d="m0.06 625h999.94v-624.94h-999.94z"/></clipPath><clipPath id="d"><path d="m0.06 625h999.94v-624.94h-999.94z"/></clipPath><clipPath id="c"><path d="m0.06 625h999.94v-624.94h-999.94z"/></clipPath><clipPath id="b"><path d="m0.06 625h999.94v-624.94h-999.94z"/></clipPath><radialGradient id="a" cx="823.1" cy="327.4" r="677.41" gradientTransform="matrix(-.84314 .7432 -.7065 -.79113 1524.8 -70.739)" gradientUnits="userSpaceOnUse"><stop stop-color="#246094" offset="0"/><stop stop-color="#010920" offset="1"/></radialGradient></defs><g><rect x="-3.0198e-14" y="1.75e-5" width="1333.3" height="833.32" fill="url(#a)"/></g><g transform="matrix(1.3333 0 0 -1.3333 0 833.33)"><g clip-path="url(#bk)"><path d="m-8.172 507.49-2.042-56.156 11.235 34.318-9.193 21.838" fill="#082d4a"/><path d="m-11.236 134.15-1.021-59.275 14.3 53.036-13.279 6.239" fill="#000f24"/><path d="m-12.257 74.876 11.236-30.158 4.085 31.197-15.321-1.039" fill="#01000e"/><path d="m-9.193 316.14-2.043-57.196 15.321 39.517-13.278 17.679" fill="#00132b"/><path d="m-11.236 134.15 13.279-6.239 7.15 27.038-20.429-20.799" fill="#000b1f"/><path d="m-12.257 174.71 1.021-40.557 20.429 20.799-21.45 19.758" fill="#01091c"/><path d="m-2.043 178.87-10.214-4.161 21.45-19.758-11.236 23.919" fill="#00081d"/><path d="m-5.107 345.26-4.086-29.118 21.45 3.12-17.364 25.998" fill="#00142f"/><path d="m-9.193 316.14 13.278-17.679 8.172 20.799-21.45-3.12" fill="#010d25"/><path d="m2.043 127.91-14.3-53.036 25.536 27.038-11.236 25.998" fill="#000518"/><path d="m-12.257 74.876 15.321 1.039 10.215 25.999-25.536-27.038" fill="#010012"/><path d="m-1.021 44.718-5.108-15.6 20.429 2.08-15.321 13.52" fill="#010c20"/><path d="m-8.172 557.4v-49.917l23.493 25.999-23.493 23.918" fill="#022948"/><path d="m-11.236 258.94v-44.717l26.557 40.556-26.557 4.161" fill="#01122c"/><path d="m4.085 298.46-15.321-39.517 26.557-4.161-11.236 43.678" fill="#011631"/><path d="m-8.172 557.4 23.493-23.918 4.087 35.358-27.58-11.44" fill="#001d39"/><path d="m-6.129 600.04-2.043-42.638 27.58 11.44-25.537 31.198" fill="#001e38"/><path d="m16.343 595.88-22.472 4.16 25.537-31.198-3.065 27.038" fill="#001f3b"/><path d="m-6.129 29.118-6.128-43.678 32.686 13.52-26.558 30.158" fill="#000316"/><path d="m14.3 31.198-20.429-2.08 26.558-30.158-6.129 32.238" fill="#00000d"/><path d="M 0,625 -6.129,600.042 22.472,615.641 0,625" fill="#062f4d"/><path d="m-6.129 600.04 22.472-4.16 6.129 19.759-28.601-15.599" fill="#042d49"/><path d="m-8.172 507.49 9.193-21.838 22.472 16.639-31.665 5.199" fill="#00213d"/><path d="m15.321 533.49-23.493-25.999 31.665-5.199-8.172 31.198" fill="#012847"/><path d="m1.021 485.65-11.235-34.318 33.707-9.359-22.472 43.677" fill="#011e3c"/><path d="m23.493 502.29-22.472-16.639 22.472-43.677v60.316" fill="#001733"/><path d="m-10.214 451.33 4.085-33.278 29.622 23.919-33.707 9.359" fill="#0c3050"/><path d="m13.279 101.91-10.215-25.999l20.429 1.04-10.214 24.959" fill="#000008"/><path d="m-1.021 44.718 15.321-13.52 13.279 30.157-28.6-16.637" fill="#000316"/><path d="m3.064 75.915-4.085-31.197 28.6 16.637-24.515 14.56" fill="#01000e"/><path d="m23.493 76.955-20.429-1.04 24.515-14.56-4.086 15.6" fill="#00000c"/><path d="m-3.064 374.38-2.043-29.118 38.814-6.239-36.771 35.357" fill="#001e3a"/><path d="m-5.107 345.26 17.364-25.998 21.45 19.759-38.814 6.239" fill="#000922"/><path d="m-11.236 214.23 9.193-35.358h35.75l-44.943 35.358" fill="#01172f"/><path d="m-2.043 178.87 11.236-23.919 24.514 23.919h-35.75" fill="#000418"/><path d="m-3.064 374.38 36.771-35.357 3.065 54.076-39.836-18.719" fill="#0a2c48"/><path d="m-6.129 418.05 3.065-43.677 39.836 18.719-42.901 24.958" fill="#001b38"/><path d="m23.493 441.97-29.622-23.919 42.901-24.958-13.279 48.877" fill="#001a35"/></g><path d="m33.707 178.87-24.514-23.919 29.622-18.719-5.108 42.638" fill="#000217"/><path d="m9.193 154.95-7.15-27.038 36.772 8.319-29.622 18.719" fill="#0d1d2d"/><g clip-path="url(#bj)"><path d="m2.043 127.91 11.236-25.998 25.536 34.317-36.772-8.319" fill="#05152e"/><path d="m15.321 254.78-26.557-40.556 56.179 17.678-29.622 22.878" fill="#000116"/><path d="m-11.236 214.23 44.943-35.358 11.236 53.036-56.179-17.678" fill="#000922"/></g><g><path d="m16.343 595.88 3.065-27.038 31.664 23.918-34.729 3.12" fill="#012643"/><path d="m22.472 615.64-6.129-19.759 34.729-3.12-28.6 22.879" fill="#022e4b"/><path d="m23.493 502.29v-60.316l33.708 23.918-33.708 36.398" fill="#001b36"/><path d="m57.201 465.89-33.708-23.918 35.751 20.799-2.043 3.119" fill="#0a3353"/><path d="m15.321 533.49 8.172-31.198 36.773 55.116-44.945-23.918" fill="#113c5f"/><path d="m19.408 568.84-4.087-35.358 44.945 23.918-40.858 11.44" fill="#002744"/></g><g clip-path="url(#bi)"><path d="m51.072 592.76-31.664-23.918 40.858-11.44-9.194 35.358" fill="#001f3b"/><path d="m14.3 31.198 6.129-32.238 41.879 15.6-48.008 16.638" fill="#00071a"/></g><g><path d="M 27.579,61.355 14.3,31.198 62.308,14.56 27.579,61.355" fill="#0b172d"/><path d="m23.493 76.955 4.086-15.6 38.816 30.159-42.902-14.559" fill="#01000e"/><path d="m13.279 101.91 10.214-24.959 42.902 14.559-53.116 10.4" fill="#000316"/><path d="m38.815 136.23-25.536-34.317 53.116-10.4-27.58 44.717" fill="#000d20"/><path d="m36.772 393.1-3.065-54.076 32.688-3.121-29.623 57.197" fill="#022440"/><path d="m44.943 231.9-11.236-53.036 33.709 24.958-22.473 28.078" fill="#001530"/><path d="m4.085 298.46 11.236-43.678 53.116 41.598-64.352 2.08" fill="#0f2a47"/><path d="m12.257 319.26-8.172-20.799 64.352-2.08-56.18 22.879" fill="#00112b"/><path d="m33.707 339.02-21.45-19.759 56.18-22.879-34.73 42.638" fill="#01112b"/><path d="m66.395 335.9-32.688 3.121 34.73-42.638-2.042 39.517" fill="#021f3d"/><path d="m15.321 254.78 29.622-22.878 23.494 64.476-53.116-41.598" fill="#011b34"/><path d="m38.815 136.23 27.58-44.717 5.106 22.879-32.686 21.838" fill="#00061c"/><path d="m27.579 61.355 34.729-46.795 9.193 31.198-43.922 15.597" fill="#091b33"/></g><g clip-path="url(#bh)"><path d="m66.395 91.514-38.816-30.159 43.922-15.597-5.106 45.756" fill="#0d1f37"/><path d="m62.308 14.56-41.879-15.6 52.094-1.04-10.215 16.64" fill="#000215"/><path d="m22.472 615.64 28.6-22.879 22.472 37.438-51.072-14.559" fill="#012a48"/><path d="M -12.257,635.399 0,625 l 73.544,5.2 -85.801,5.199" fill="#093250"/><path d="M 0,625 22.472,615.641 73.544,630.2 0,625" fill="#022e4b"/></g><path d="m36.772 393.1 29.623-57.197 10.214 65.517-39.837-8.32" fill="#082b4b"/><path d="m23.493 441.97 13.279-48.877 39.837 8.32-53.116 40.557" fill="#00132e"/><g clip-path="url(#bg)"><path d="m51.072 592.76 9.194-35.358 19.407 54.077-28.601-18.719" fill="#002b48"/><path d="m73.544 630.2-22.472-37.438 28.601 18.719-6.129 18.719" fill="#002c49"/></g><g><path d="m23.493 502.29 33.708-36.398 23.493 75.916-57.201-39.518" fill="#032c4c"/><path d="m60.266 557.4-36.773-55.116 57.201 39.518-20.428 15.598" fill="#133f62"/><path d="m38.815 136.23 32.686-21.838 16.344 62.396-49.03-40.558" fill="#00132c"/><path d="m33.707 178.87 5.108-42.638 49.03 40.558-54.138 2.08" fill="#000821"/><path d="m67.416 203.83-33.709-24.958 54.138-2.08-20.429 27.038" fill="#010d25"/><path d="m59.244 462.77-35.751-20.799 65.373-14.559-29.622 35.358" fill="#052c4b"/><path d="m23.493 441.97 53.116-40.557 12.257 25.998-65.373 14.559" fill="#001f3c"/><path d="m66.395 335.9 2.042-39.517 25.536 8.319-27.578 31.198" fill="#1f4367"/><path d="m93.973 304.7-25.536-8.319 25.536-20.799v29.118" fill="#2b4d68"/><path d="m68.437 296.38-23.494-64.476 49.03 43.677-25.536 20.799" fill="#0d2845"/></g><g clip-path="url(#bf)"><path d="m71.501 45.758-9.193-31.198 36.773 20.797-27.58 10.401" fill="#0c1e36"/><path d="m62.308 14.56 10.215-16.64 26.558 37.437-36.773-20.797" fill="#021327"/></g><g><path d="m66.395 91.514 5.106-45.756 30.644 30.157-35.75 15.599" fill="#122742"/><path d="m71.501 45.758 27.58-10.401 3.064 40.558-30.644-30.157" fill="#0f253d"/><path d="m57.201 465.89 2.043-3.119 44.944 47.836-46.987-44.717" fill="#174262"/><path d="m80.694 541.81-23.493-75.916 46.987 44.717-23.494 31.199" fill="#0c385b"/><path d="m79.673 611.48-19.407-54.077 45.965 38.478-26.558 15.599" fill="#002341"/><path d="m60.266 557.4 20.428-15.598 25.537 54.076-45.965-38.478" fill="#1c4970"/><path d="m88.866 427.41-12.257-25.998 29.622-11.44-17.365 37.438" fill="#143b5c"/><path d="m76.609 401.42-10.214-65.517 39.836 54.077-29.622 11.44" fill="#0a3054"/><path d="m66.395 335.9 27.578-31.198 12.258 85.275-39.836-54.077" fill="#00213d"/></g><g clip-path="url(#be)"><path d="m87.845 176.79-16.344-62.396 35.751 24.958-19.407 37.438" fill="#031b37"/><path d="m99.081 35.357-26.558-37.437 39.836 1.04-13.278 36.397" fill="#000c22"/></g><g><path d="m107.25 139.35-35.751-24.958 42.901-11.439-7.15 36.397" fill="#01112a"/><path d="m71.501 114.39-5.106-22.879 48.007 11.44-42.901 11.439" fill="#000619"/><path d="m66.395 91.514 35.75-15.599 12.257 27.039-48.007-11.44" fill="#010012"/><path d="m44.943 231.9 22.473-28.078 48.008 29.118-70.481-1.04" fill="#0e2947"/><path d="m93.973 275.58-49.03-43.677 70.481 1.04-21.451 42.637" fill="#041e39"/><path d="m67.416 203.83 20.429-27.038 27.579 56.156-48.008-29.118" fill="#031b37"/><path d="m80.694 541.81 23.494-31.199 14.3 53.037-37.794-21.838" fill="#104066"/><path d="m106.23 595.88-25.537-54.076 37.794 21.838-12.257 32.238" fill="#032f52"/><path d="m106.23 389.98-12.258-85.275l27.579-8.319-15.321 93.594" fill="#001d3d"/><path d="m93.973 304.7v-29.118l27.579 20.799-27.579 8.319" fill="#123457"/></g><g clip-path="url(#bd)"><path d="m93.973 275.58 21.451-42.637 6.128 63.436-27.579-20.799" fill="#072847"/><path d="m73.544 630.2 6.129-18.719 42.901 18.719h-49.03" fill="#083556"/><path d="m79.673 611.48 26.558-15.599 16.343 34.318-42.901-18.719" fill="#023354"/></g><g><path d="m104.19 510.61-44.944-47.836 79.673-1.041-34.729 48.877" fill="#012d50"/><path d="m125.64 502.29-21.451 8.319 34.729-48.877-13.278 40.558" fill="#033155"/><path d="m59.244 462.77 29.622-35.358 50.051 34.317-79.673 1.041" fill="#09355a"/><path d="m88.866 427.41 17.365-37.438 32.686 71.755-50.051-34.317" fill="#032e51"/></g><g clip-path="url(#bc)"><path d="m106.23 595.88 12.257-32.238 20.429 34.318-32.686-2.08" fill="#002d4e"/><path d="m122.57 630.2-16.343-34.318 32.686 2.08-16.343 32.238" fill="#002e4f"/></g><path d="m115.42 232.94-27.579-56.156 52.093 33.277-24.514 22.879" fill="#011b36"/><path d="m118.49 563.64-14.3-53.037 36.772 29.119-22.472 23.918" fill="#09395d"/><g clip-path="url(#bb)"><path d="m104.19 510.61 21.451-8.319 15.321 37.438-36.772-29.119" fill="#06365c"/><path d="m99.081 35.357 13.278-36.397 29.622 14.559-42.9 21.838" fill="#000a20"/></g><g><path d="m102.14 75.915-3.064-40.558 44.943 17.68-41.879 22.878" fill="#00142d"/><path d="m99.081 35.357 42.9-21.838 2.043 39.518-44.943-17.68" fill="#010b24"/><path d="m114.4 102.95-12.257-27.039 41.879-22.878-29.622 49.917" fill="#00081d"/><path d="m107.25 139.35 7.15-36.397 30.644 60.316-37.794-23.919" fill="#00142d"/><path d="m87.845 176.79 19.407-37.438 37.794 23.919-57.201 13.519" fill="#06203b"/><path d="m139.94 210.07-52.093-33.277 57.201-13.519-5.108 46.796" fill="#0b2442"/><path d="m144.02 53.037-2.043-39.518 9.193 28.079-7.15 11.439" fill="#000217"/><path d="m121.55 296.38-6.128-63.436 46.987 27.038-40.859 36.398" fill="#00223e"/><path d="m115.42 232.94 24.514-22.879 22.473 49.917-46.987-27.038" fill="#133455"/><path d="m125.64 502.29 13.278-40.558 28.601 21.839-41.879 18.719" fill="#0d4169"/><path d="m140.96 539.73-15.321-37.438 41.879-18.719-26.558 56.157" fill="#003056"/><path d="m114.4 102.95 29.622-49.917 23.494 45.757-53.116 4.16" fill="#051d39"/><path d="m138.92 597.96-20.429-34.318 50.051 11.439-29.622 22.879" fill="#12476f"/><path d="m118.49 563.64 22.472-23.918 27.579 35.357-50.051-11.439" fill="#0a3e65"/><path d="m106.23 389.98 15.321-93.594 48.009 69.676-63.33 23.918" fill="#0d3559"/><path d="m145.05 163.27-30.644-60.316 59.244 39.517-28.6 20.799" fill="#000e28"/><path d="m114.4 102.95 53.116-4.16 6.128 43.677-59.244-39.517" fill="#031931"/><path d="m121.55 296.38 40.859-36.398 13.278 65.516-54.137-29.118" fill="#062e51"/></g><g clip-path="url(#ba)"><path d="m169.56 366.06-48.009-69.676 54.137 29.118-6.128 40.558" fill="#17436a"/><path d="m122.57 630.2 16.343-32.238 48.008 4.159-64.351 28.079" fill="#023457"/></g><g><path d="m138.92 597.96 29.622-22.879 18.386 27.038-48.008-4.159" fill="#174c78"/><path d="m175.69 325.5-13.278-65.516 28.6 18.719-15.322 46.797" fill="#032b4f"/><path d="m167.52 483.57-28.601-21.839 54.137-23.918-25.536 45.757" fill="#1a4e7d"/><path d="m138.92 461.73-32.686-71.755 86.823 47.837-54.137 23.918" fill="#0f4069"/><path d="m106.23 389.98 63.33-23.918 23.493 71.755-86.823-47.837" fill="#043158"/><path d="m145.05 163.27 28.6-20.799 20.43 8.32-49.03 12.479" fill="#000e29"/><path d="m173.65 142.47-6.128-43.677 26.558 51.997-20.43-8.32" fill="#082340"/><path d="m151.17 41.598-9.193-28.079 52.095 28.079h-42.902" fill="#000014"/><path d="m144.02 53.037 7.15-11.439h42.902l-50.052 11.439" fill="#00061e"/><path d="m167.52 98.794-23.494-45.757 50.052-11.439-26.558 57.196" fill="#00132c"/><path d="m140.96 539.73 26.558-56.157 29.622 20.799-56.18 35.358" fill="#03345d"/><path d="m168.54 575.08-27.579-35.357 58.223 8.319-30.644 27.038" fill="#093e66"/><path d="m140.96 539.73 56.18-35.358 2.043 43.677-58.223-8.319" fill="#00335b"/><path d="m186.92 602.12-18.386-27.038 30.644-27.038-12.258 54.076" fill="#0b446f"/><path d="m194.08 41.598-52.095-28.079 63.331 4.161-11.236 23.918" fill="#00051b"/><path d="m194.08 150.79-26.558-51.997 40.858-21.839-14.3 73.836" fill="#07203e"/><path d="m167.52 98.794 26.558-57.196 14.3 35.357-40.858 21.839" fill="#00142f"/><path d="m167.52 483.57 25.536-45.757 17.364 21.839-42.9 23.918" fill="#114672"/><path d="m197.14 504.37-29.622-20.799 42.9-23.918-13.278 44.717" fill="#0e436f"/><path d="m162.41 259.98-22.473-49.917 72.523-8.319-50.05 58.236" fill="#133558"/><path d="m145.05 163.27 49.03-12.479 18.385 50.956-67.415-38.477" fill="#011e3c"/><path d="m194.08 150.79 17.364 15.599 1.021 35.357-18.385-50.956" fill="#103353"/><path d="m139.94 210.07 5.108-46.796 67.415 38.477-72.523 8.319" fill="#0e2b4b"/><path d="m210.42 459.65-17.364-21.839 24.515-37.437-7.151 59.276" fill="#1a5281"/><path d="m193.05 437.81-23.493-71.755 48.008 34.318-24.515 37.437" fill="#144975"/><path d="m191.01 278.7-28.6-18.719 55.158 1.04-26.558 17.679" fill="#0a3256"/><path d="m162.41 259.98 50.05-58.236 5.108 59.276-55.158-1.04" fill="#123a5d"/><path d="m169.56 366.06 6.128-40.558 45.966 33.278-52.094 7.28" fill="#184972"/><path d="m217.57 400.38-48.008-34.318 52.094-7.28-4.086 41.598" fill="#255883"/><path d="m197.14 504.37 13.278-44.717 13.279 36.397-26.557 8.32" fill="#164e7d"/><path d="m212.46 201.75-1.021-35.357 21.451 10.399-20.43 24.958" fill="#103456"/><path d="m232.89 176.79-21.451-10.399 24.515-37.438-3.064 47.837" fill="#0b2c4d"/><path d="m194.08 150.79 14.3-73.836 27.579 51.997-41.879 21.839" fill="#102f4e"/><path d="m211.44 166.39-17.364-15.599 41.879-21.839-24.515 37.438" fill="#0e2c4e"/><path d="m191.01 278.7 26.558-17.679 19.408 48.877-45.966-31.198" fill="#164068"/><path d="m175.69 325.5 15.322-46.797 45.966 31.198-61.288 15.599" fill="#113e67"/><path d="m221.66 358.78-45.966-33.278 61.288-15.599-15.322 48.877" fill="#13446f"/><path d="m199.18 548.04-2.043-43.677 40.858 35.358-38.815 8.319" fill="#0f4776"/><path d="m197.14 504.37 26.557-8.32 14.301 43.678-40.858-35.358" fill="#164e7d"/><path d="m194.08 41.598 11.236-23.918 32.686 9.358-43.922 14.56" fill="#01102d"/><path d="m208.38 76.955-14.3-35.357 43.922-14.56-29.622 49.917" fill="#061f3d"/><path d="m235.96 128.95-27.579-51.997 34.729 5.199-7.15 46.798" fill="#031e3b"/><path d="m208.38 76.955 29.622-49.917 5.107 55.116-34.729-5.199" fill="#00142f"/></g><g clip-path="url(#az)"><path d="m212.46 201.75 20.43-24.958 11.236 7.279-31.666 17.679" fill="#0c3052"/><path d="m122.57 630.2 64.351-28.079 60.266 25.999-124.62 2.08" fill="#0c436c"/><path d="m247.19 628.12-60.266-25.999 61.287-20.798-1.021 46.797" fill="#0e4973"/></g><g><path d="m186.92 602.12 12.258-54.076 49.029 33.278-61.287 20.798" fill="#093f6b"/><path d="m199.18 548.04 38.815-8.319 10.214 41.597-49.029-33.278" fill="#094470"/><path d="m217.57 261.02-5.108-59.276 39.837 40.558-34.729 18.718" fill="#204a72"/><path d="m212.46 201.75 31.666-17.679 8.171 58.237-39.837-40.558" fill="#11375b"/><path d="m232.89 176.79 3.064-47.837 19.408 20.799-22.472 27.038" fill="#08294a"/><path d="m244.13 184.07-11.236-7.279 22.472-27.038-11.236 34.317" fill="#0b2e4e"/><path d="m236.98 309.9-19.408-48.877 38.815 28.079-19.407 20.798" fill="#1e4f7a"/><path d="m217.57 261.02 34.729-18.718 4.086 46.797-38.815-28.079" fill="#16436c"/><path d="m210.42 459.65 7.151-59.276 39.836 25.998-46.987 33.278" fill="#174f7e"/></g><g clip-path="url(#ay)"><path d="m235.96 128.95 7.15-46.798 15.322 11.44-22.472 35.358" fill="#03203e"/><path d="m238 27.038-32.686-9.358 54.136-28.078-21.45 37.436" fill="#011633"/><path d="m141.98 13.519-29.622-14.559 147.09-9.358-117.47 23.917" fill="#000922"/><path d="m205.31 17.68-63.331-4.161 117.47-23.917-54.136 28.078" fill="#041b3a"/></g><g><path d="m243.1 82.154-5.107-55.116 26.558 40.558-21.451 14.558" fill="#01122e"/><path d="m258.43 93.594-15.322-11.44 21.451-14.558-6.129 25.998" fill="#000e29"/><path d="m236.98 309.9 19.407-20.798 11.236 44.717-30.643-23.919" fill="#144570"/><path d="m221.66 358.78 15.322-48.877 30.643 23.919-45.965 24.958" fill="#154671"/><path d="m255.36 149.75-19.408-20.799 34.729 3.119-15.321 17.68" fill="#1e3d5c"/><path d="m235.96 128.95 22.472-35.358 12.257 38.477-34.729-3.119" fill="#123356"/><path d="m223.7 496.05-13.279-36.397 61.288 32.238-48.009 4.159" fill="#1a568a"/><path d="m210.42 459.65 46.987-33.278 14.301 65.516-61.288-32.238" fill="#0e4b7a"/><path d="m238 539.73-14.301-43.678 48.009-4.159-33.708 47.837" fill="#0a4776"/><path d="m256.38 289.1-4.086-46.797 24.515 34.317-20.429 12.48" fill="#1d4c76"/></g><g clip-path="url(#ax)"><path d="m267.62 333.82-11.236-44.717 20.429-12.48-9.193 57.197" fill="#1b4b79"/><path d="m238 27.038 21.45-37.436 19.408 29.117-40.858 8.319" fill="#00031e"/><path d="m247.19 628.12 1.021-46.797 32.686 46.797h-33.707" fill="#185486"/></g><g><path d="m221.66 358.78 45.965-24.958 13.278 71.755-59.243-46.797" fill="#276191"/><path d="m217.57 400.38 4.086-41.598 59.243 46.797-63.329-5.199" fill="#1b5382"/><path d="m257.4 426.37-39.836-25.998 63.329 5.199-23.493 20.799" fill="#134d7b"/><path d="m264.56 67.596-26.558-40.558 44.944 30.158-18.386 10.4" fill="#011633"/><path d="m238 27.038 40.858-8.319 4.086 38.477-44.944-30.158" fill="#0e2849"/><path d="m258.43 93.594 6.129-25.998 18.386-10.4-24.515 36.398" fill="#011230"/><path d="m244.13 184.07 11.236-34.317 28.6 22.878-39.836 11.439" fill="#08294a"/><path d="m255.36 149.75 15.321-17.68 13.279 40.558-28.6-22.878" fill="#0c2e51"/><path d="m252.3 242.3-8.171-58.237 42.9 59.277-34.729-1.04" fill="#0b355b"/><path d="m276.81 276.62-24.515-34.317 34.729 1.04-10.214 33.277" fill="#184972"/><path d="m238 539.73 33.708-47.837 23.493 36.397-57.201 11.44" fill="#1a598c"/><path d="m271.71 491.89-14.301-65.516 40.859 31.198-26.558 34.318" fill="#0f4d7e"/><path d="m257.4 426.37 23.493-20.799 17.366 51.997-40.859-31.198" fill="#155384"/><path d="m295.2 528.29-23.493-36.397 30.643 15.598-7.15 20.799" fill="#1b598c"/></g><g clip-path="url(#aw)"><path d="m271.71 491.89 26.558-34.318 4.085 49.916-30.643-15.598" fill="#0b4779"/><path d="m280.9 628.12-32.686-46.797 55.159 3.119-22.473 43.678" fill="#13507f"/></g><g><path d="m303.37 584.44-55.159-3.119 55.159-32.239v35.358" fill="#0a4774"/><path d="m295.2 528.29 7.15-20.799 1.022 41.597-8.172-20.798" fill="#1e6196"/><path d="m248.21 581.32-10.214-41.597 65.373 9.358-55.159 32.239" fill="#08436f"/><path d="m238 539.73 57.201-11.44 8.172 20.798-65.373-9.358" fill="#407faa"/><path d="m280.9 405.57-13.278-71.755 41.88 30.158-28.602 41.597" fill="#225e90"/><path d="m244.13 184.07 39.836-11.439 25.537 37.437-65.373-25.998" fill="#0e3659"/><path d="m287.03 243.34-42.9-59.277 65.373 25.998-22.473 33.279" fill="#10375e"/><path d="m298.26 457.57-17.366-51.997 29.623 11.44-12.257 40.557" fill="#124e82"/><path d="m280.9 405.57 28.602-41.597 1.021 53.037-29.623-11.44" fill="#1e5c8f"/><path d="m282.94 57.196-4.086-38.477 33.707 9.359-29.621 29.118" fill="#122c4f"/><path d="m283.96 172.63-13.279-40.558 43.923-11.439-30.644 51.997" fill="#0c2e53"/></g><g clip-path="url(#av)"><path d="m270.68 132.07-12.257-38.477 56.18 27.038-43.923 11.439" fill="#0f2d51"/><path d="m278.86 18.719-19.408-29.117 58.223 7.278-38.815 21.839" fill="#00112f"/><path d="m312.56 28.078-33.707-9.359 38.815-21.839-5.108 31.198" fill="#072142"/></g><g><path d="m267.62 333.82 9.193-57.197 44.944 18.719-54.137 38.478" fill="#5b88af"/><path d="m276.81 276.62 10.214-33.277 34.73 51.996-44.944-18.719" fill="#295d8c"/><path d="m302.35 507.49-4.085-49.916 26.557 2.08-22.472 47.836" fill="#3274b0"/><path d="m298.26 457.57 12.257-40.557 14.3 42.637-26.557-2.08" fill="#205f95"/><path d="m258.43 93.594 24.515-36.398 41.879 34.318-66.394 2.08" fill="#011b3c"/><path d="m314.61 120.63-56.18-27.038 66.394-2.08-10.214 29.118" fill="#022342"/><path d="m282.94 57.196 29.621-29.118 12.258 63.436-41.879-34.318" fill="#112f53"/><path d="m309.5 363.98-41.88-30.158 60.266-8.32-18.386 38.478" fill="#1f5b8d"/><path d="m267.62 333.82 54.137-38.478 6.129 30.158-60.266 8.32" fill="#2c6a9d"/><path d="m309.5 210.07-25.537-37.437 54.137 2.079-28.6 35.358" fill="#164066"/></g><g clip-path="url(#au)"><path d="m283.96 172.63 30.644-51.997 23.493 54.076-54.137-2.079" fill="#1b4269"/><path d="m280.9 628.12 22.473-43.678 42.9 24.959-65.373 18.719" fill="#155382"/></g><g><path d="m324.82 91.514-12.258-63.436 36.773 31.198-24.515 32.238" fill="#204069"/><path d="m324.82 459.65-14.3-42.637 39.836-22.879-25.536 65.516" fill="#16558a"/><path d="m310.52 417.01-1.021-53.037 40.857 30.158-39.836 22.879" fill="#2a6ba3"/><path d="m327.89 325.5-6.129-30.158 31.665-12.48-25.536 42.638" fill="#3a77ad"/></g><g clip-path="url(#at)"><path d="m321.76 295.34-34.73-51.996 66.395 39.516-31.665 12.48" fill="#346c9f"/><path d="m312.56 28.078 5.108-31.198 38.815-7.278-43.923 38.476" fill="#021f41"/><path d="m349.34 59.276-36.773-31.198 43.923-38.476-7.15 69.674" fill="#0c2a4e"/></g><g><path d="m287.03 243.34 22.473-33.279 48.008 13.52-70.481 19.759" fill="#306494"/><path d="m353.42 282.86-66.395-39.516 70.481-19.759-4.086 59.275" fill="#245d88"/><path d="m309.5 210.07 28.6-35.358 19.408 48.878-48.008-13.52" fill="#21507a"/><path d="m302.35 507.49 22.472-47.836 33.708 41.597-56.18 6.239" fill="#1a598e"/><path d="m303.37 549.08-1.022-41.597 56.18-6.239-55.158 47.836" fill="#2669a0"/><path d="m327.89 325.5 25.536-42.638 8.171 48.878-33.707-6.24" fill="#2f6ca2"/><path d="m309.5 363.98 18.386-38.478 33.707 6.24-52.093 32.238" fill="#1b5789"/><path d="m350.36 394.14-40.857-30.158 52.093-32.238-11.236 62.396" fill="#26659a"/><path d="m324.82 459.65 25.536-65.516 12.258 65.516h-37.794" fill="#18598f"/><path d="m358.53 501.25-33.708-41.597h37.794l-4.086 41.597" fill="#21649b"/><path d="m303.37 549.08 55.158-47.836 5.108 62.396-60.266-14.56" fill="#26699e"/><path d="m303.37 584.44v-35.358l60.266 14.56-60.266 20.798" fill="#2d73a7"/></g><g clip-path="url(#as)"><path d="m346.27 609.4-42.9-24.959 60.266-20.798-17.366 45.757" fill="#0c4a79"/><path d="m280.9 628.12 65.373-18.719 21.451 25.998-86.824-7.279" fill="#1c5e8e"/></g><g><path d="m324.82 91.514 24.515-32.238 20.429 66.556-44.944-34.318" fill="#002140"/><path d="m314.61 120.63 10.214-29.118 44.944 34.318-55.158-5.2" fill="#113358"/><path d="m338.1 174.71-23.493-54.076 55.158 5.2-31.665 48.876" fill="#1d436a"/><path d="m353.42 282.86 4.086-59.275 19.407 46.797-23.493 12.478" fill="#275d8c"/><path d="m361.59 331.74-8.171-48.878 23.493-12.478-15.322 61.356" fill="#2c689c"/><path d="m350.36 394.14 11.236-62.396 16.344 29.118-27.58 33.278" fill="#226197"/><path d="m362.62 459.65-12.258-65.516 28.601 37.438-16.343 28.078" fill="#2768a2"/></g><g clip-path="url(#ar)"><path d="m350.36 394.14 27.58-33.278 1.021 70.716-28.601-37.438" fill="#26679f"/><path d="m367.72 635.4-21.451-25.998 35.751 16.639-14.3 9.359" fill="#1a5a8a"/><path d="m376.92 270.38-19.407-46.797 27.579 38.477-8.172 8.32" fill="#235987"/><path d="m349.34 59.276 7.15-69.674 28.601 38.476-35.751 31.198" fill="#052244"/><path d="m346.27 609.4 17.366-45.757 25.535 56.157-42.901-10.4" fill="#135683"/><path d="m382.02 626.04-35.751-16.639 42.901 10.4-7.15 6.239" fill="#145784"/></g><path d="m357.51 223.59-19.408-48.878 57.201 3.121-37.793 45.757" fill="#21507a"/><g clip-path="url(#aq)"><path d="m338.1 174.71 31.665-48.876 25.536 51.997-57.201-3.121" fill="#234d77"/><path d="m385.09 28.078-28.601-38.476 42.901 25.998-14.3 12.478" fill="#00183a"/></g><g><path d="m358.53 501.25 4.086-41.597 39.837 39.517-43.923 2.08" fill="#22659c"/><path d="m369.76 125.83-20.429-66.556 54.137 28.078-33.708 38.478" fill="#113358"/><path d="m362.62 459.65 16.343-28.078 26.558-2.08-42.901 30.158" fill="#1d6097"/><path d="m402.45 499.17-39.837-39.517 42.901-30.158-3.064 69.675" fill="#115489"/><path d="m378.96 431.57-1.021-70.716 27.579 68.636-26.558 2.08" fill="#20639a"/><path d="m363.64 563.64-5.108-62.396 48.008 40.558-42.9 21.838" fill="#16588c"/><path d="m358.53 501.25 43.923-2.08 4.085 42.638-48.008-40.558" fill="#115085"/><path d="m357.51 223.59 37.793-45.757 13.279 15.599-51.072 30.158" fill="#21527d"/><path d="m349.34 59.276 35.751-31.198 23.493 15.6-59.244 15.598" fill="#011f43"/><path d="m403.47 87.354-54.137-28.078 59.244-15.598-5.107 43.676" fill="#0e2e54"/><path d="m385.09 28.078 14.3-12.478 9.193 28.078-23.493-15.6" fill="#001638"/><path d="m389.17 619.8-25.535-56.157 50.051 40.557-24.516 15.6" fill="#4185b2"/><path d="m405.52 429.49-27.579-68.636 37.793 4.16-10.214 64.476" fill="#1d5c92"/><path d="m406.54 541.81-4.085-42.638 13.278 12.479-9.193 30.159" fill="#0f4e81"/><path d="m377.94 360.86-16.344-29.118 58.223-5.2-41.879 34.318" fill="#3b7db9"/><path d="m415.73 365.02-37.793-4.16 41.879-34.318-4.086 38.478" fill="#3a7fba"/><path d="m361.59 331.74 15.322-61.356 42.901 56.156-58.223 5.2" fill="#2e6ba2"/><path d="m376.92 270.38 8.172-8.32 34.729 64.476-42.901-56.156" fill="#215b8d"/><path d="m385.09 262.06-27.579-38.477 64.351 20.799-36.772 17.678" fill="#2b6190"/><path d="m357.51 223.59 51.072-30.158 13.279 50.957-64.351-20.799" fill="#1c4f7a"/><path d="m363.64 563.64 42.9-21.838 16.344 43.676-59.244-21.838" fill="#206397"/><path d="m413.69 604.2-50.051-40.557 59.244 21.838-9.193 18.719" fill="#2b6ea3"/><path d="m406.54 541.81 9.193-30.159 12.258 47.837-21.451-17.678" fill="#155487"/><path d="m422.88 585.48-16.344-43.676 21.451 17.678-5.107 25.998" fill="#1f6193"/><path d="m408.58 193.43-13.279-15.599 35.751-7.28-22.472 22.879" fill="#26557f"/><path d="m395.3 177.83-25.536-51.997 61.287 44.717-35.751 7.28" fill="#174169"/></g><g clip-path="url(#ap)"><path d="m369.76 125.83 33.708-38.478 27.579 83.195-61.287-44.717" fill="#194369"/><path d="m399.39 15.6-42.901-25.998 80.695 6.239-37.794 19.759" fill="#011e40"/></g><g><path d="m431.05 170.55-27.579-83.195 34.729-4.16-7.15 87.355" fill="#214871"/><path d="m403.47 87.354 5.107-43.676 29.622 39.516-34.729 4.16" fill="#113359"/><path d="m422.88 585.48 5.107-25.998 17.365 6.24-22.472 19.758" fill="#1e6092"/><path d="m421.86 244.38-13.279-50.957h38.815l-25.536 50.957" fill="#2d608f"/><path d="m408.58 193.43 22.472-22.879 16.343 22.879h-38.815" fill="#235381"/><path d="m438.2 83.194-29.622-39.516 38.815-16.64-9.193 56.156" fill="#042548"/></g><g clip-path="url(#ao)"><path d="m408.58 43.678-9.193-28.078 48.008 11.438-38.815 16.64" fill="#001a3d"/><path d="m399.39 15.6 37.794-19.759 10.214 31.197-48.008-11.438" fill="#001d3f"/></g><g><path d="m402.45 499.17 3.064-69.675 42.901 29.118-45.965 40.557" fill="#2469a2"/><path d="m415.73 511.65-13.278-12.479 45.965-40.557-32.687 53.036" fill="#1a5d94"/><path d="m419.82 326.54-34.729-64.476 68.437 27.039-33.708 37.437" fill="#246094"/></g><g clip-path="url(#an)"><path d="m385.09 262.06 36.772-17.678 31.665 44.717-68.437-27.039" fill="#235d8d"/><path d="m382.02 626.04 7.15-6.239 64.352 14.558-71.502-8.319" fill="#1c5e8e"/><path d="m389.17 619.8 24.516-15.6 39.836 30.158-64.352-14.558" fill="#25699a"/></g><path d="m422.88 585.48 22.472-19.758 10.214 23.919-32.686-4.161" fill="#1f6193"/><g clip-path="url(#am)"><path d="m413.69 604.2 9.193-18.719 32.686 4.161-41.879 14.558" fill="#236798"/><path d="m453.52 634.36-39.836-30.158 41.879-14.558-2.043 44.716" fill="#206292"/></g><path d="m415.73 511.65 32.687-53.036 11.235 59.276-43.922-6.24" fill="#2668a2"/><path d="m427.99 559.48-12.258-47.837 43.922 6.24-31.664 41.597" fill="#195b8f"/><g clip-path="url(#al)"><path d="m445.35 565.72-17.365-6.24 31.664-41.597-14.299 47.837" fill="#1f6195"/><path d="m447.4 27.038-10.214-31.197 23.493 7.279-13.279 23.918" fill="#103057"/><path d="m453.52 634.36 2.043-44.716 12.257 27.038-14.3 17.678" fill="#276b9c"/></g><g><path d="m415.73 365.02 4.086-38.478 49.03 27.038-53.116 11.44" fill="#2e6fa9"/><path d="m419.82 326.54 33.708-37.437 15.322 64.475-49.03-27.038" fill="#28669f"/><path d="m421.86 244.38 25.536-50.957 23.493 54.076-49.029-3.119" fill="#346c9f"/><path d="m453.52 289.1-31.665-44.717 49.029 3.119-17.364 41.598" fill="#3a76ac"/><path d="m448.42 458.61-42.901-29.118 66.394-24.959-23.493 54.077" fill="#2d73af"/><path d="m405.52 429.49 10.214-64.476 56.18 39.517-66.394 24.959" fill="#21639d"/><path d="m415.73 365.02 53.116-11.44 3.064 50.957-56.18-39.517" fill="#3278b3"/><path d="m448.42 458.61 23.493-54.077 3.065 44.717-26.558 9.36" fill="#1c5e98"/><path d="m453.52 289.1 17.364-41.598 5.108 20.799-22.472 20.799" fill="#326ea4"/><path d="m438.2 83.194 9.193-56.156 29.622 34.317-38.815 21.839" fill="#13355b"/><path d="m447.4 27.038 13.279-23.918 17.365 45.757-30.644-21.839" fill="#0c2c52"/></g><g clip-path="url(#ak)"><path d="m477.02 61.355-29.622-34.317 30.644 21.839-1.022 12.478" fill="#092b50"/><path d="m478.04 48.877-17.365-45.757 17.365-3.12v48.877" fill="#0b2b51"/><path d="m460.67 3.12-23.493-7.279 40.858 4.159-17.365 3.12" fill="#0c2c52"/></g><g><path d="m470.89 247.5-23.493-54.076 32.687 17.678-9.194 36.398" fill="#306899"/><path d="m447.4 193.43-16.343-22.879 54.137-36.398-37.794 59.277" fill="#295a85"/><path d="m431.05 170.55 7.15-87.355 46.987 50.957-54.137 36.398" fill="#2b5680"/><path d="m438.2 83.194 38.815-21.839 9.193 32.239-48.008-10.4" fill="#0e3157"/><path d="m485.19 134.15-46.987-50.957 48.008 10.4-1.021 40.557" fill="#183f6a"/><path d="m459.65 517.89-11.235-59.276 38.815 27.038-27.58 32.238" fill="#22639d"/><path d="m448.42 458.61 26.558-9.36 12.257 36.398-38.815-27.038" fill="#2466a2"/><path d="m459.65 517.89 27.58-32.238 9.193 57.196-36.773-24.958" fill="#20639a"/><path d="m455.57 589.64-10.214-23.919 51.072-22.879-40.858 46.798" fill="#1b5d8d"/></g><g clip-path="url(#aj)"><path d="m445.35 565.72 14.299-47.837 36.773 24.958-51.072 22.879" fill="#1c5e92"/><path d="m453.52 634.36 14.3-17.678 29.622 17.678h-43.922" fill="#2b6d9d"/></g><g><path d="m480.08 211.11-32.687-17.678 58.223-15.599-25.536 33.277" fill="#285b88"/><path d="m447.4 193.43 37.794-59.277 20.429 43.678-58.223 15.599" fill="#20517c"/><path d="m453.52 289.1 22.472-20.799 31.665 19.759-54.137 1.04" fill="#3a78b3"/><path d="m468.85 353.58-15.322-64.475 62.308 36.397-46.986 28.078" fill="#26649d"/></g><g clip-path="url(#ai)"><path d="m453.52 289.1 54.137-1.04 8.171 37.437-62.308-36.397" fill="#25649a"/><path d="m497.45 634.36-29.622-17.678 51.072-17.68-21.45 35.358" fill="#2f71a3"/></g><path d="m467.82 616.68-12.257-27.038 63.329 9.358-51.072 17.68" fill="#27699b"/><g clip-path="url(#ah)"><path d="m455.57 589.64 40.858-46.798 22.471 56.156-63.329-9.358" fill="#165483"/><path d="m478.04 48.877v-48.877l43.922 28.078-43.922 20.799" fill="#0a2b4e"/><path d="m478.04 0 38.815-5.199 5.107 33.277l-43.922-28.078" fill="#000f2e"/></g><g><path d="m485.19 134.15 1.021-40.557 37.794-3.12-38.815 43.677" fill="#1d446f"/><path d="m487.23 485.65-12.257-36.398 50.051-5.199-37.794 41.597" fill="#18568f"/><path d="m474.98 449.25-3.065-44.717 53.116 39.518-50.051 5.199" fill="#1d5e98"/><path d="m470.89 247.5 9.194-36.398 48.008 11.44-57.202 24.958" fill="#235988"/><path d="m476 268.3-5.108-20.799 57.202-24.958-52.094 45.757" fill="#245e8e"/><path d="m480.08 211.11 25.536-33.277 22.472 44.717-48.008-11.44" fill="#255988"/><path d="m486.21 93.594-9.193-32.239 51.073 14.56-41.88 17.679" fill="#05274a"/><path d="m524 90.474-37.794 3.12 41.88-17.679-4.086 14.559" fill="#0f3258"/><path d="m496.42 542.84-9.193-57.196 41.879 35.357-32.686 21.839" fill="#1f6098"/><path d="m487.23 485.65 37.794-41.597 4.085 76.954-41.879-35.357" fill="#0a467a"/><path d="m478.04 48.877 43.922-20.799 7.15 23.919-51.072-3.12" fill="#1b3e68"/><path d="m477.02 61.355 1.022-12.478 51.072 3.12-52.094 9.358" fill="#082a4f"/><path d="m528.09 75.915-51.073-14.56 52.094-9.358-1.021 23.918" fill="#08284e"/><path d="m471.91 404.53-3.064-50.957 64.351 38.478-61.287 12.479" fill="#2566a0"/><path d="m468.85 353.58 46.986-28.078 17.365 66.556-64.351-38.478" fill="#2c6eaa"/><path d="m518.9 599-22.471-56.156 36.772 4.16-14.301 51.996" fill="#155281"/><path d="m496.42 542.84 32.686-21.839 4.086 25.999-36.772-4.16" fill="#3f80b6"/><path d="m525.03 444.05-53.116-39.518 63.33 18.719-10.214 20.799" fill="#0f4c83"/><path d="m471.91 404.53 61.287-12.479 2.043 31.198-63.33-18.719" fill="#16548d"/><path d="m485.19 134.15 38.815-43.677 15.321 32.239-54.136 11.438" fill="#1d4872"/><path d="m507.66 288.06-31.665-19.759 65.372-23.918-33.707 43.677" fill="#2f6ba1"/></g><g clip-path="url(#ag)"><path d="m476 268.3 52.094-45.757 13.278 21.839-65.372 23.918" fill="#1f578a"/><path d="m521.96 28.078-5.107-33.277 27.58 19.759-22.473 13.518" fill="#07294c"/></g><g><path d="m529.11 51.997-7.15-23.919 22.473-13.518-15.323 37.437" fill="#163760"/><path d="m505.62 177.83-20.429-43.678 60.265 18.72-39.836 24.958" fill="#18456f"/><path d="m485.19 134.15 54.136-11.438 6.129 30.158-60.265-18.72" fill="#1f4a74"/><path d="m541.37 244.38-13.278-21.839 21.451 4.159-8.173 17.68" fill="#3d78b0"/><path d="m533.2 392.06-17.365-66.556 38.816 22.879-21.451 43.677" fill="#22609b"/><path d="m528.09 75.915 1.021-23.918 25.537 17.679-26.558 6.239" fill="#234874"/><path d="m524 90.474 4.086-14.559 26.558-6.239-30.644 20.798" fill="#103359"/><path d="m549.54 226.7-21.451-4.159 28.6-60.317-7.149 64.476" fill="#2b5f91"/><path d="m528.09 222.55-22.472-44.717 51.072-15.6-28.6 60.317" fill="#1d4e79"/></g><g clip-path="url(#af)"><path d="m505.62 177.83 39.836-24.958 11.236 9.358-51.072 15.6" fill="#1d4976"/><path d="m544.43 14.56-27.58-19.759 40.858 8.319-13.278 11.44" fill="#022346"/></g><g><path d="m533.2 547-4.086-25.999 29.622 35.358-25.536-9.359" fill="#3071a7"/><path d="m518.9 599 14.301-51.996 25.536 9.359-39.837 42.637" fill="#1f5d8e"/><path d="m544.43 14.56 13.278-11.44 3.064 19.759-16.342-8.319" fill="#0d2f54"/><path d="m529.11 51.997 15.323-37.437 16.342 8.319-31.665 29.118" fill="#15375d"/><path d="m554.65 69.676-25.537-17.679 31.665-29.118-6.128 46.797" fill="#1f4268"/><path d="m507.66 288.06 33.707-43.677 22.472 38.476-56.179 5.201" fill="#306da4"/><path d="m556.69 162.23-11.236-9.358 19.408 6.239-8.172 3.119" fill="#295989"/><path d="m533.2 392.06 21.451-43.677 13.279 6.239-34.73 37.438" fill="#22609b"/><path d="m567.93 354.62-13.279-6.239 13.279-45.758v51.997" fill="#164e87"/><path d="m554.65 348.38-38.816-22.879 52.095-22.879-13.279 45.758" fill="#2a6aa7"/><path d="m515.83 325.5-8.171-37.437 60.266 14.558-52.095 22.879" fill="#5693c9"/><path d="m507.66 288.06 56.179-5.201 4.087 19.759-60.266-14.558" fill="#3a76b2"/><path d="m545.45 152.87-6.129-30.158 29.622 3.119-23.493 27.039" fill="#1d4873"/></g><g clip-path="url(#ae)"><path d="m564.86 159.11-19.408-6.239 23.493-27.039-4.085 33.278" fill="#24537f"/><path d="m497.45 634.36 21.45-35.358 52.094 34.319-73.544 1.039" fill="#266591"/></g><g><path d="m568.95 125.83-29.622-3.119 32.688-34.318-3.066 37.437" fill="#153f67"/><path d="m539.32 122.71-15.321-32.239 48.009-2.079-32.688 34.318" fill="#12355b"/><path d="m524 90.474 30.644-20.798 17.365 18.719-48.009 2.079" fill="#1d426c"/><path d="m529.11 521.01-4.085-76.954 54.137 45.757-50.052 31.197" fill="#19548c"/><path d="m558.73 556.36-29.622-35.358 50.052-31.197-20.43 66.555" fill="#2f6da6"/></g><g clip-path="url(#ad)"><path d="m518.9 599 39.837-42.637 22.472 29.118-62.309 13.519" fill="#205d8c"/><path d="m570.99 633.32-52.094-34.319 62.309-13.519-10.215 47.838" fill="#25628f"/></g><g><path d="m541.37 244.38 8.173-17.68 32.686 8.32-40.859 9.36" fill="#2b6094"/><path d="m563.84 282.86-22.472-38.476 40.859-9.36-18.387 47.836" fill="#2c659c"/><path d="m554.65 69.676 6.128-46.797 21.451 17.678-27.579 29.119" fill="#305379"/><path d="m572.01 88.395-17.365-18.719 27.579-29.119-10.214 47.838" fill="#234c78"/><path d="m535.24 423.25-2.043-31.198 50.051 23.919-48.008 7.279" fill="#0f4c83"/><path d="m582.23 235.02-32.686-8.32 34.729-20.798-2.043 29.118" fill="#2e659b"/><path d="m549.54 226.7 7.149-64.476 27.58 43.678-34.729 20.798" fill="#265889"/><path d="m560.78 22.879-3.064-19.759 26.558 2.079-23.494 17.68" fill="#0a2c51"/><path d="m582.23 40.557-21.451-17.678 23.494-17.68-2.043 35.358" fill="#103258"/><path d="m533.2 392.06 34.73-37.438 18.386 37.438h-53.116" fill="#22629f"/><path d="m583.25 415.97-50.051-23.919h53.116l-3.065 23.919" fill="#2f6da6"/><path d="m579.16 489.81-54.137-45.757 62.308-12.479-8.171 58.236" fill="#22609b"/><path d="m525.03 444.05 10.214-20.799 52.094 8.32-62.308 12.479" fill="#195792"/><path d="m535.24 423.25 48.008-7.279 4.086 15.599-52.094-8.32" fill="#124d87"/><path d="m556.69 162.23 8.172-3.119 22.472 15.598-30.644-12.479" fill="#1e4a71"/><path d="m584.27 205.91-27.58-43.678 30.644 12.479-3.064 31.199" fill="#164772"/><path d="m564.86 159.11 4.085-33.278 28.602 42.637-32.687-9.359" fill="#275785"/><path d="m587.33 174.71-22.472-15.598 32.687 9.359-10.215 6.239" fill="#1e4d7b"/><path d="m584.27 205.91 3.064-31.199 10.215-6.239-13.279 37.438" fill="#164674"/><path d="m567.93 354.62v-51.997l38.815 37.438-38.815 14.559" fill="#124981"/><path d="m586.31 392.06-18.386-37.438 38.815-14.559-20.429 51.997" fill="#1d5995"/><path d="m568.95 125.83 3.066-37.437 37.793 20.798-40.859 16.639" fill="#103760"/><path d="m572.01 88.395 10.214-47.838 30.643 35.358-40.857 12.48" fill="#153b62"/><path d="m609.81 109.19-37.793-20.798 40.857-12.48-3.064 33.278" fill="#082c50"/><path d="m606.74 340.06-38.815-37.438 45.965 17.68-7.15 19.758" fill="#1f5a94"/><path d="m582.23 40.557 2.043-35.358 31.665 35.358h-33.708" fill="#0c2e53"/></g><g clip-path="url(#ac)"><path d="m612.87 75.915-30.643-35.358h33.708l-3.065 35.358" fill="#0e3056"/><path d="m570.99 633.32 10.215-47.838 36.773 37.438-46.988 10.4" fill="#245e8e"/></g><path d="m597.55 168.47-28.602-42.637 53.116-2.079-24.514 44.716" fill="#1c4772"/><g clip-path="url(#ab)"><path d="m568.95 125.83 40.859-16.639 12.257 14.56-53.116 2.079" fill="#133a63"/><path d="m615.94 40.557-31.665-35.358 41.879-10.398-10.214 45.756" fill="#011f43"/><path d="m557.71 3.12-40.858-8.319h109.3l-68.437 8.319" fill="#042548"/><path d="m584.27 5.199-26.558-2.079 68.437-8.319-41.879 10.398" fill="#022044"/></g><g><path d="m563.84 282.86 18.387-47.836 44.944 34.318-63.331 13.518" fill="#225d95"/><path d="m567.93 302.62-4.087-19.759 63.331-13.518-59.244 33.277" fill="#2c67a1"/><path d="m613.89 320.3-45.965-17.68 59.244-33.277-13.279 50.957" fill="#235e98"/><path d="m579.16 489.81 8.171-58.236 40.857 37.437-49.028 20.799" fill="#17528a"/><path d="m609.81 109.19 3.064-33.278 18.387 11.439-21.451 21.839" fill="#173d64"/><path d="m622.06 123.75-12.257-14.56 21.451-21.839-9.194 36.399" fill="#1e4872"/><path d="m612.87 75.915 3.065-35.358 15.322 46.797-18.387-11.439" fill="#0d3358"/><path d="m628.19 469.01-40.857-37.437 44.943-16.639-4.086 54.076" fill="#16518b"/><path d="m583.25 415.97 3.065-23.919 45.964 22.879-49.029 1.04" fill="#205c98"/><path d="m587.33 431.57-4.086-15.599 49.029-1.04-44.943 16.639" fill="#1b5692"/><path d="m584.27 205.91 13.279-37.438 35.75 4.16-49.029 33.278" fill="#215483"/><path d="m597.55 168.47 24.514-44.716 11.236 48.876-35.75-4.16" fill="#194670"/><path d="m617.98 622.92-36.773-37.438 56.18-28.078-19.407 65.516" fill="#1e5784"/><path d="m579.16 489.81 49.028-20.799 9.194 88.394-58.222-67.595" fill="#124779"/><path d="m558.73 556.36 20.43-66.555 58.222 67.595-78.652-1.04" fill="#256195"/><path d="m581.2 585.48-22.472-29.118 78.652 1.04-56.18 28.078" fill="#1f5b8d"/></g><g clip-path="url(#aa)"><path d="m613.89 320.3 13.279-50.957 11.236 34.317-24.515 16.64" fill="#184f87"/><path d="m615.94 40.557 10.214-45.756 12.258 31.197-22.472 14.559" fill="#001739"/></g><g><path d="m584.27 205.91 49.029-33.278 18.387 23.918-67.416 9.36" fill="#1a4a7a"/><path d="m606.74 340.06 7.15-19.758 40.858 23.918-48.008-4.16" fill="#27639f"/><path d="m613.89 320.3 24.515-16.64 16.343 40.558-40.858-23.918" fill="#215996"/><path d="m631.26 87.354-15.322-46.797 38.815 40.558-23.493 6.239" fill="#103258"/><path d="m606.74 340.06 48.008 4.16 4.086 43.678-52.094-47.838" fill="#3a75b1"/><path d="m586.31 392.06 20.429-51.997 52.094 47.838-72.523 4.159" fill="#114982"/><path d="m632.28 414.93-45.964-22.879 72.523-4.159-26.559 27.038" fill="#134b84"/><path d="m627.17 269.34-44.944-34.318 76.609-9.36-31.665 43.678" fill="#22578d"/><path d="m582.23 235.02 2.043-29.118 74.566 19.758-76.609 9.36" fill="#1b4f81"/><path d="m584.27 205.91 67.416-9.36 7.15 29.118-74.566-19.758" fill="#134371"/><path d="m615.94 40.557 22.472-14.559 21.449 15.6-43.921-1.041" fill="#001737"/><path d="m654.75 81.115-38.815-40.558 43.921 1.041-5.106 39.517" fill="#06284b"/><path d="m633.3 172.63-11.236-48.876 38.816 13.518-27.58 35.358" fill="#09335b"/><path d="m631.26 87.354 23.493-6.239 7.149 30.157-30.642-23.918" fill="#183f68"/><path d="m622.06 123.75 9.194-36.399 30.642 23.918-39.836 12.481" fill="#2d5781"/><path d="m660.88 137.27-38.816-13.518 39.836-12.481-1.02 25.999" fill="#224b77"/><path d="m638.41 303.66-11.236-34.317 35.751 20.799-24.515 13.518" fill="#12477d"/><path d="m627.17 269.34 31.665-43.678 4.086 64.477-35.751-20.799" fill="#124477"/><path d="m654.75 344.22-16.343-40.558 24.515-13.518-8.172 54.076" fill="#195089"/><path d="m628.19 469.01 4.086-54.076 31.665 15.599-35.751 38.477" fill="#1b528b"/><path d="m632.28 414.93 26.559-27.038 5.106 42.637-31.665-15.599" fill="#0a3d74"/></g><g clip-path="url(#z)"><path d="m637.38 557.4-9.194-88.394 36.773 46.797-27.579 41.597" fill="#0e4071"/><path d="m638.41 25.998-12.258-31.197 38.815 30.158-26.557 1.039" fill="#01193b"/></g><path d="m659.86 41.598-21.449-15.6 26.557-1.039-5.108 16.639" fill="#001636"/><g clip-path="url(#y)"><path d="m617.98 622.92 19.407-65.516 28.601 41.597-48.008 23.919" fill="#326a9b"/><path d="m617.98 622.92 48.008-23.919 2.043 34.319-50.051-10.4" fill="#2d6392"/><path d="m570.99 633.32 46.988-10.4 50.051 10.4h-97.039" fill="#1e5480"/></g><path d="m651.69 196.55-18.387-23.918 40.858-16.639-22.471 40.557" fill="#0f3a67"/><path d="m633.3 172.63 27.58-35.358 13.278 18.719-40.858 16.639" fill="#0b355f"/><g clip-path="url(#x)"><path d="m658.84 387.9-4.086-43.678 24.515 23.918-20.429 19.76" fill="#195089"/><path d="m664.96 24.959-38.815-30.158 56.179-1.04-17.364 31.198" fill="#011c3a"/></g><g><path d="m628.19 469.01 35.751-38.477 21.452 31.197-57.203 7.28" fill="#1a4f85"/><path d="m664.96 515.81-36.773-46.797 57.203-7.28-20.43 54.077" fill="#174a7f"/><path d="m664.96 515.81 20.43-54.077 4.085 38.478-24.515 15.599" fill="#184c7e"/><path d="m662.92 290.14-4.086-64.477 30.643 16.64-26.557 47.837" fill="#103f73"/><path d="m664.96 515.81 24.515-15.599 3.064 47.837-27.579-32.238" fill="#124272"/><path d="m637.38 557.4 27.579-41.597 27.579 32.238-55.158 9.359" fill="#11416f"/><path d="m665.99 599-28.601-41.597 55.158-9.359-26.557 50.956" fill="#1b4e7d"/><path d="m654.75 344.22 8.172-54.076 33.707 44.717-41.879 9.359" fill="#154982"/><path d="m679.26 368.14-24.515-23.918 41.879-9.359-17.364 33.277" fill="#174a83"/><path d="m654.75 81.115 5.106-39.517 37.795 25.998-42.901 13.519" fill="#042548"/><path d="m661.9 111.27-7.149-30.157 42.901-13.519-35.752 43.676" fill="#0e3056"/><path d="m651.69 196.55 22.471-40.557 26.558 35.358-49.029 5.199" fill="#17426f"/><path d="m658.84 225.66-7.15-29.118 49.029-5.199-41.879 34.317" fill="#174674"/><path d="m689.48 242.3-30.643-16.64 41.879-34.317-11.236 50.957" fill="#123e6f"/><path d="m685.39 461.73-21.452-31.197 42.902-13.519-21.45 44.716" fill="#194c85"/><path d="m663.94 430.53-5.106-42.637 48.008 29.118-42.902 13.519" fill="#11447d"/><path d="m658.84 387.9 20.429-19.76 27.579 48.878-48.008-29.118" fill="#1d518a"/><path d="m661.9 111.27 35.752-43.676 10.214 43.676h-45.966" fill="#092d51"/><path d="m660.88 137.27 1.02-25.999h45.966l-46.986 25.999" fill="#11375e"/><path d="m674.16 155.99-13.278-18.719 46.986-25.999-33.708 44.718" fill="#193d61"/><path d="m662.92 290.14 26.557-47.837 22.471 37.437-49.028 10.4" fill="#114376"/><path d="m696.63 334.86-33.707-44.717 49.028 21.838-15.321 22.879" fill="#0e4075"/></g><g clip-path="url(#w)"><path d="m662.92 290.14 49.028-10.4v32.238l-49.028-21.838" fill="#1b4e85"/><path d="m664.96 24.959 17.364-31.198 29.622 34.317-46.986-3.119" fill="#062345"/></g><g><path d="m659.86 41.598 5.108-16.639 46.986 3.119-52.094 13.52" fill="#001e40"/><path d="m697.65 67.596-37.795-25.998 52.094-13.52-14.299 39.518" fill="#0d2d53"/><path d="m689.48 242.3 11.236-50.957 20.429 37.437-31.665 13.52" fill="#1b497a"/><path d="m711.95 279.74-22.471-37.437 31.665-13.52-9.194 50.957" fill="#194779"/><path d="m700.72 191.35-26.558-35.358 48.008-14.559-21.45 49.917" fill="#153c67"/></g><g clip-path="url(#v)"><path d="m674.16 155.99 33.708-44.718 14.3 30.159-48.008 14.559" fill="#153a64"/><path d="m668.03 633.32-2.043-34.319 61.287-11.438-59.244 45.757" fill="#194a73"/></g><g><path d="m665.99 599 26.557-50.956 34.73 39.518-61.287 11.438" fill="#14436f"/><path d="m696.63 334.86 15.321-22.879 16.344 53.037-31.665-30.158" fill="#0d3c72"/><path d="m679.26 368.14 17.364-33.277 31.665 30.158-49.029 3.119" fill="#15487f"/></g><g clip-path="url(#u)"><path d="m706.84 417.01-27.579-48.878 49.029-3.119-21.45 51.997" fill="#11447b"/><path d="m711.95 28.078-29.622-34.317 51.073 3.119-21.451 31.198" fill="#062343"/></g><g><path d="m689.48 500.21-4.085-38.478 50.05-14.559-45.965 53.037" fill="#1a497f"/><path d="m685.39 461.73 21.45-44.716 28.6 30.157-50.05 14.559" fill="#09396a"/><path d="m711.95 311.98v-32.238l23.494 21.839-23.494 10.399" fill="#073567"/><path d="m722.16 141.43-14.3-30.159 29.622-9.358-15.322 39.517" fill="#0b3156"/><path d="m707.86 111.27-10.214-43.676 39.836 34.318-29.622 9.358" fill="#05274a"/><path d="m700.72 191.35 21.45-49.917 19.407 34.317-40.857 15.6" fill="#0a315a"/><path d="m727.27 587.56-34.73-39.518 50.052 10.399-15.322 29.119" fill="#0e3b65"/><path d="m697.65 67.596 14.299-39.518 31.666 21.839-45.965 17.679" fill="#011b3c"/></g><g clip-path="url(#t)"><path d="m737.49 101.91-39.836-34.318 45.965-17.679-6.129 51.997" fill="#001938"/><path d="m711.95 28.078 21.451-31.198 10.215 53.037-31.666-21.839" fill="#032040"/></g><g><path d="m692.54 548.04-3.064-47.837 56.18 23.919-53.116 23.918" fill="#154472"/><path d="m742.6 558.44-50.052-10.399 53.116-23.918-3.064 34.317" fill="#0e3763"/><path d="m711.95 279.74 9.194-50.957 24.515 20.799-33.709 30.158" fill="#0d3767"/><path d="m735.44 301.58-23.494-21.839 33.709-30.158-10.215 51.997" fill="#103e6f"/><path d="m689.48 500.21 45.965-53.037 14.301 53.037h-60.266" fill="#0e3d6b"/><path d="m745.66 524.13-56.18-23.919h60.266l-4.086 23.919" fill="#093461"/><path d="m706.84 417.01 21.45-51.997 24.515 12.479-45.965 39.518" fill="#0a386c"/><path d="m745.66 249.58-24.515-20.799 33.709-30.158-9.194 50.957" fill="#022954"/><path d="m721.14 228.78-20.429-37.437 54.138 7.279-33.709 30.158" fill="#0b3460"/><path d="m700.72 191.35 40.857-15.6 13.281 22.879-54.138-7.279" fill="#0c3762"/><path d="m752.81 377.5-24.515-12.479 27.579-8.32-3.064 20.799" fill="#134173"/><path d="m728.29 365.02-16.344-53.037 43.923 44.717-27.579 8.32" fill="#073567"/><path d="m711.95 311.98 23.494-10.399 20.429 55.116-43.923-44.717" fill="#002a5a"/></g><g clip-path="url(#s)"><path d="m727.27 587.56 15.322-29.119 16.343 49.917-31.665-20.798" fill="#133d65"/><path d="m668.03 633.32 59.244-45.757 31.665 20.798-90.909 24.959" fill="#194872"/><path d="m743.62 49.917-10.215-53.037 33.708 22.879-23.493 30.158" fill="#021f3f"/></g><g><path d="m749.74 500.21-14.301-53.037 37.794 14.559-23.493 38.478" fill="#002552"/><path d="m773.24 461.73-37.794-14.559 37.794-22.878v37.437" fill="#00224f"/><path d="m735.44 447.17-28.6-30.157 66.394 7.279-37.794 22.878" fill="#002c5b"/><path d="m706.84 417.01 45.965-39.518 20.429 46.797-66.394-7.279" fill="#002a5a"/><path d="m735.44 301.58 10.215-51.997 27.579 23.919-37.794 28.078" fill="#164072"/><path d="m745.66 249.58 9.194-50.957 21.449 25.998-30.643 24.959" fill="#01274e"/><path d="m773.24 273.5-27.579-23.919 30.643-24.959-3.064 48.878" fill="#052f57"/><path d="m755.87 356.7-20.429-55.116 42.901 34.317-22.472 20.799" fill="#032b5c"/><path d="m754.85 198.63-13.281-22.879 36.773-4.159-23.492 27.038" fill="#022449"/><path d="m741.57 175.75-19.407-34.317 56.18 30.158-36.773 4.159" fill="#03274b"/><path d="m745.66 524.13 4.086-23.919 33.707-6.24-37.793 30.159" fill="#0d3664"/></g><g clip-path="url(#r)"><path d="m749.74 500.21 23.493-38.478 10.214 32.238-33.707 6.24" fill="#00244e"/><path d="m767.11 19.759-33.708-22.879 50.051-10.399-16.343 33.278" fill="#01102d"/></g><g><path d="m722.16 141.43 15.322-39.517 49.031 14.559-64.353 24.958" fill="#103458"/><path d="m778.34 171.59-56.18-30.158 64.353-24.958-8.173 55.116" fill="#082a4d"/><path d="m735.44 301.58 37.794-28.078 18.386 24.958-56.18 3.12" fill="#315e88"/></g><g clip-path="url(#q)"><path d="m778.34 335.9-42.901-34.317 56.18-3.12-13.279 37.437" fill="#194778"/><path d="m668.03 633.32 90.909-24.959 33.708 18.719-124.62 6.24" fill="#234e78"/></g><g><path d="m743.62 49.917 23.493-30.158 27.579 40.557-51.072-10.399" fill="#1b395b"/><path d="m737.49 101.91 6.129-51.997 51.072 10.399-57.201 41.598" fill="#001232"/><path d="m786.52 116.47-49.031-14.559 57.201-41.598-8.17 56.157" fill="#021a3c"/></g><g clip-path="url(#p)"><path d="m758.94 608.36-16.343-49.917 54.136 30.158-37.793 19.759" fill="#0b3156"/><path d="m792.65 627.08-33.708-18.719 37.793-19.759-4.085 38.478" fill="#0d3155"/></g><g><path d="m776.3 224.62-21.449-25.998 42.9-12.479-21.451 38.477" fill="#0b3158"/><path d="m754.85 198.63 23.492-27.038 19.408 14.559-42.9 12.479" fill="#012547"/><path d="m773.24 424.29-20.429-46.797 51.073 2.08-30.644 44.717" fill="#002653"/><path d="m752.81 377.5 3.064-20.799 48.009 22.879-51.073-2.08" fill="#083264"/></g><g clip-path="url(#o)"><path d="m755.87 356.7 22.472-20.799 25.537 43.678-48.009-22.879" fill="#022b59"/><path d="m792.65 627.08 4.085-38.478 10.215 40.558-14.3-2.08" fill="#113356"/></g><path d="m745.66 524.13 37.793-30.159 25.537 21.839-63.33 8.32" fill="#0c3660"/><path d="m742.6 558.44 3.064-34.317 63.33-8.32-66.394 42.637" fill="#254f7f"/><g clip-path="url(#n)"><path d="m796.73 588.6-54.136-30.158 66.394-42.637-12.258 72.795" fill="#1c436e"/><path d="m767.11 19.759 16.343-33.278 25.537 32.238-41.88 1.04" fill="#011a38"/></g><path d="m794.69 60.316-27.579-40.557 41.88-1.04-14.301 41.597" fill="#102d4b"/><g clip-path="url(#m)"><path d="m773.24 424.29 30.644-44.717 6.128 35.358-36.772 9.359" fill="#012853"/><path d="m808.99 18.719-25.537-32.238 29.622 18.718-4.085 13.52" fill="#001731"/></g><g><path d="m778.34 171.59 8.173-55.116 27.579 22.878-35.752 32.238" fill="#092a4d"/><path d="m797.75 186.15-19.408-14.559 35.752-32.238-16.344 46.797" fill="#001635"/><path d="m773.24 273.5 3.064-48.878 39.837 43.678-42.901 5.2" fill="#0a345e"/><path d="m791.62 298.46-18.386-24.958 42.901-5.2-24.515 30.158" fill="#1b4472"/><path d="m778.34 335.9 13.279-37.437 26.558 41.597-39.837-4.16" fill="#062f5d"/><path d="m803.88 379.58-25.537-43.678 39.837 4.16-14.3 39.518" fill="#022753"/><path d="m786.52 116.47 8.17-56.157 27.58 3.12-35.75 53.037" fill="#00031c"/><path d="m794.69 60.316 14.301-41.597 13.279 44.717-27.58-3.12" fill="#2a445b"/><path d="m773.24 461.73v-37.437l50.051 21.838-50.051 15.599" fill="#092e5b"/><path d="m773.24 424.29 36.772-9.359 13.279 31.197-50.051-21.838" fill="#01244c"/><path d="m783.45 493.97-10.214-32.238 53.116 25.999-42.902 6.239" fill="#10365b"/><path d="m773.24 461.73 50.051-15.599 3.065 41.598-53.116-25.999" fill="#113662"/><path d="m808.99 515.81-25.537-21.839 42.902-6.239-17.365 28.078" fill="#0b2e56"/><path d="m796.73 588.6 12.258-72.795 19.407 47.837-31.665 24.958" fill="#20466d"/><path d="m824.31 575.08-27.58 13.519 31.665-24.958-4.085 11.439" fill="#001737"/><path d="m814.1 139.35-27.579-22.878 41.878 13.519-14.299 9.359" fill="#082545"/><path d="m797.75 186.15 16.344-46.797 20.428 44.717-36.772 2.08" fill="#001b39"/></g><g clip-path="url(#l)"><path d="m814.1 139.35 14.299-9.359 6.129 54.076-20.428-44.717" fill="#0e2c4e"/><path d="m806.95 629.16-10.215-40.558 41.88 21.839-31.665 18.719" fill="#0e2f50"/></g><g><path d="m796.73 588.6 27.58-13.519 14.3 35.358-41.88-21.839" fill="#032241"/><path d="m786.52 116.47 35.75-53.037 16.343 40.557-52.093 12.48" fill="#000e29"/><path d="m828.4 129.99-41.878-13.519 52.093-12.48-10.215 25.999" fill="#041f3c"/><path d="m791.62 298.46 24.515-30.158 24.514 28.078-49.029 2.08" fill="#163c69"/></g><g clip-path="url(#k)"><path d="m818.18 340.06-26.558-41.597 49.029-2.08-22.471 43.677" fill="#163c6b"/><path d="m813.07 5.199-29.622-18.718 58.223 2.081-28.601 16.637" fill="#001029"/></g><g><path d="m810.01 414.93-6.128-35.358 38.814-9.36-32.686 44.718" fill="#0c315b"/><path d="m803.88 379.58 14.3-39.518 24.514 30.158-38.814 9.36" fill="#052850"/><path d="m816.14 268.3-39.837-43.678 70.48-8.318-30.643 51.996" fill="#03254b"/><path d="m776.3 224.62 21.451-38.477 49.029 30.159-70.48 8.318" fill="#0e3056"/><path d="m797.75 186.15 36.772-2.08 12.257 32.239-49.029-30.159" fill="#011f41"/><path d="m826.35 487.73-3.065-41.598 25.536 5.2-22.471 36.398" fill="#05274d"/><path d="m822.27 63.436-13.279-44.717 41.879 30.158-28.6 14.559" fill="#08213f"/><path d="m838.61 103.99-16.343-40.557 28.6-14.559-12.257 55.116" fill="#031b37"/><path d="m808.99 515.81 17.365-28.078 30.643 42.637-48.008-14.559" fill="#092b50"/><path d="m828.4 563.64-19.407-47.837 48.008 14.559-28.601 33.278" fill="#0f2f55"/><path d="m828.4 563.64 28.601-33.278 1.021 48.877-29.622-15.599" fill="#062343"/><path d="m824.31 575.08 4.085-11.439 29.622 15.599-33.707-4.16" fill="#001b39"/><path d="m838.61 610.44-14.3-35.358 33.707 4.16-19.407 31.198" fill="#011c3a"/><path d="m840.65 296.38-24.514-28.078 41.879 3.12-17.365 24.958" fill="#092b51"/></g><g clip-path="url(#j)"><path d="m816.14 268.3 30.643-51.996 11.236 55.116-41.879-3.12" fill="#002043"/><path d="m813.07 5.199 28.601-16.637 17.365 39.516-45.966-22.879" fill="#000e28"/></g><g><path d="m808.99 18.719 4.085-13.52 45.966 22.879-50.051-9.359" fill="#001832"/><path d="m850.87 48.877-41.879-30.158 50.051 9.359-8.172 20.799" fill="#011631"/><path d="m826.35 487.73 22.471-36.398 11.236 14.559-33.707 21.839" fill="#011f43"/></g><g clip-path="url(#i)"><path d="m838.61 610.44 19.407-31.198 7.15 35.358-26.557-4.16" fill="#01203d"/><path d="m806.95 629.16 31.665-18.719 26.557 4.16-58.222 14.559" fill="#08294a"/></g><g><path d="m810.01 414.93 32.686-44.718 22.472 30.159-55.158 14.559" fill="#092952"/><path d="m823.29 446.13-13.279-31.197 55.158-14.559-41.879 45.756" fill="#001d43"/><path d="m848.82 451.33-25.536-5.2 41.879-45.756-16.343 50.956" fill="#07294e"/><path d="m846.78 216.31-12.257-32.239 31.665 21.839-19.408 10.4" fill="#001837"/><path d="m828.4 129.99 10.215-25.999 30.643 49.917-40.858-23.918" fill="#011a38"/><path d="m834.52 184.07-6.129-54.076 40.858 23.918-34.729 30.158" fill="#082545"/><path d="m866.19 205.91-31.665-21.839 34.729-30.158-3.064 51.997" fill="#0c2647"/><path d="m857 530.37-30.643-42.637 46.987 12.479-16.344 30.158" fill="#011b3c"/></g><g clip-path="url(#h)"><path d="m826.35 487.73 33.707-21.839 13.28 34.318-46.987-12.479" fill="#05254b"/><path d="m859.04 28.078-17.365-39.516 32.686 10.398-15.321 29.118" fill="#000922"/><path d="m859.04 28.078 15.321-29.118 3.065 5.199-18.386 23.919" fill="#01091e"/></g><g><path d="m865.17 400.38-22.472-30.159 36.773-30.158-14.301 60.317" fill="#001638"/><path d="m818.18 340.06 22.471-43.677 38.816 43.677h-61.287" fill="#001e42"/><path d="m842.7 370.22-24.514-30.158h61.287l-36.773 30.158" fill="#001a3d"/><path d="m858.02 271.42-11.236-55.116 32.687 32.237-21.451 22.879" fill="#052244"/><path d="m846.78 216.31 19.408-10.4 13.279 42.637-32.687-32.237" fill="#000f2e"/><path d="m865.17 614.6-7.15-35.358 22.472 25.999-15.322 9.359" fill="#0f2c4a"/><path d="m838.61 103.99 12.257-55.116 33.708 46.798-45.965 8.318" fill="#071e3d"/><path d="m869.25 153.91-30.643-49.917 45.965-8.318-15.322 58.235" fill="#01122c"/><path d="m860.06 465.89-11.236-14.559 37.794-21.838-26.558 36.397" fill="#001938"/><path d="m848.82 451.33 16.343-50.956 21.451 29.118-37.794 21.838" fill="#052347"/><path d="m879.47 340.06-38.816-43.677 50.052 17.679-11.236 25.998" fill="#072549"/><path d="m840.65 296.38 17.365-24.958 34.73 34.317-52.095-9.359" fill="#001737"/><path d="m890.7 314.06-50.052-17.679 52.095 9.359-2.043 8.32" fill="#021f41"/><path d="m858.02 271.42 21.451-22.879 13.279 57.196-34.73-34.317" fill="#000e2b"/><path d="m859.04 28.078 18.386-23.919 17.364 55.117-35.75-31.198" fill="#000012"/><path d="m850.87 48.877 8.172-20.799 35.75 31.198-43.922-10.399" fill="#00061e"/><path d="m884.58 95.675-33.708-46.798 43.922 10.399-10.214 36.399" fill="#011530"/><path d="m873.34 500.21-13.28-34.318 42.902 34.318h-29.622" fill="#001b39"/><path d="m892.75 305.74-13.279-57.196h23.494l-10.215 57.196" fill="#000d2a"/><path d="m860.06 465.89 26.558-36.397 19.407 20.798-45.965 15.599" fill="#0c284d"/><path d="m902.96 500.21-42.902-34.318 45.965-15.599-3.063 49.917" fill="#092646"/><path d="m880.49 605.24-22.472-25.999 49.03 3.12-26.558 22.879" fill="#173250"/><path d="m858.02 579.24-1.021-48.877 50.051 51.997-49.03-3.12" fill="#0a2747"/><path d="m879.47 248.54-13.279-42.637 41.879 14.559-28.6 28.078" fill="#001d3b"/><path d="m902.96 248.54h-23.494l28.6-28.078-5.106 28.078" fill="#001736"/><path d="m884.58 95.675 10.214-36.399 14.301 45.757-24.515-9.358" fill="#031835"/><path d="m869.25 153.91 15.322-58.235 24.515 9.358-39.837 48.877" fill="#102746"/><path d="m880.49 605.24 26.558-22.879 3.064 42.637-29.622-19.758" fill="#0e2745"/></g><g clip-path="url(#g)"><path d="m865.17 614.6 15.322-9.359 29.622 19.758-44.944-10.399" fill="#132e4b"/><path d="m806.95 629.16 58.222-14.559 44.944 10.399-103.17 4.16" fill="#021d38"/></g><g><path d="m865.17 400.38 14.301-60.317 30.643 39.518-44.944 20.799" fill="#052244"/><path d="m886.62 429.49-21.451-29.118 44.944-20.799-23.493 49.917" fill="#000e2d"/><path d="m909.09 105.03-14.301-45.757h20.43l-6.129 45.757" fill="#001029"/><path d="m907.05 582.36-50.051-51.997 59.244 5.2-9.193 46.797" fill="#011b36"/><path d="m857 530.37 16.344-30.158 42.9 35.358-59.244-5.2" fill="#000b27"/><path d="m873.34 500.21h29.622l13.278 35.358-42.9-35.358" fill="#000e28"/><path d="m916.24 535.57-13.278-35.358 14.299-1.04-1.021 36.398" fill="#01112b"/><path d="m869.25 153.91 39.837-48.877 9.193 58.237-49.03-9.36" fill="#011935"/><path d="m866.19 205.91 3.064-51.997 49.03 9.36-52.094 42.637" fill="#01122c"/><path d="m908.07 220.47-41.879-14.559 52.094-42.637-10.215 57.196" fill="#041d3b"/><path d="m894.79 59.276-17.364-55.117 43.923 20.8-26.559 34.317" fill="#000116"/><path d="m915.22 59.276h-20.43l26.559-34.317-6.129 34.317" fill="#000217"/><path d="m902.96 500.21 3.063-49.917 16.344 17.679-19.407 32.238" fill="#001938"/><path d="m917.26 499.17-14.299 1.04 19.407-32.238-5.108 31.198" fill="#021c37"/><path d="m890.7 314.06 2.043-8.32 32.687 15.6-34.73-7.28" fill="#001938"/><path d="m879.47 340.06 11.236-25.998 34.73 7.28-45.966 18.718" fill="#032042"/><path d="m910.11 379.58-30.643-39.518 45.966-18.718-15.323 58.236" fill="#052146"/><path d="m892.75 305.74 10.215-57.196 28.6 48.877-38.815 8.319" fill="#00102a"/><path d="m925.44 321.34-32.687-15.6 38.815-8.319-6.128 23.919" fill="#01122e"/></g><g clip-path="url(#f)"><path d="m909.09 105.03 6.129-45.757 18.385 35.358-24.514 10.399" fill="#000c22"/><path d="m877.43 4.159-3.065-5.199 62.309-1.04-59.244 6.239" fill="#00081d"/><path d="m921.35 24.959-43.923-20.8 59.244-6.239-15.321 27.039" fill="#000217"/></g><g><path d="m931.56 297.42-28.6-48.877 34.728 25.998-6.128 22.879" fill="#00142f"/><path d="m916.24 535.57 1.021-36.398 27.58 33.278-28.601 3.12" fill="#00142d"/><path d="m922.37 467.97-16.344-17.679 38.816-22.878-22.472 40.557" fill="#001029"/><path d="m906.03 450.29-19.407-20.798 58.223-2.08-38.816 22.878" fill="#001532"/><path d="m886.62 429.49 23.493-49.917 34.73 47.837-58.223 2.08" fill="#001b38"/></g><g clip-path="url(#e)"><path d="m910.11 625-3.064-42.637 42.901 20.798l-39.837 21.839" fill="#011b32"/><path d="m921.35 24.959 15.321-27.039 13.279 25.999-28.6 1.04" fill="#05172d"/></g><g><path d="m908.07 220.47 10.215-57.196 32.687 15.599-42.902 41.597" fill="#071e3d"/><path d="m902.96 248.54 5.106-28.078 42.902 35.357-48.008-7.279" fill="#021a34"/><path d="m937.69 274.54-34.728-25.998 48.008 7.279-13.28 18.719" fill="#0a2342"/><path d="m949.95 603.16-42.901-20.798 46.986 6.239-4.085 14.559" fill="#00142c"/><path d="m916.24 535.57 28.601-3.12 9.192 23.918-37.793-20.798" fill="#051f38"/><path d="m907.05 582.36 9.193-46.797 37.793 20.798-46.986 25.999" fill="#00122a"/><path d="m954.03 588.6-46.986-6.239 46.986-25.999v32.238" fill="#001029"/><path d="m910.11 379.58 15.323-58.236 30.642 49.916-45.965 8.32" fill="#001331"/><path d="m944.84 427.41-34.73-47.837 45.965-8.32-11.235 56.157" fill="#031c3a"/><path d="m933.6 94.634-18.385-35.358 40.857-17.678-22.472 53.036" fill="#000a1e"/><path d="m915.22 59.276 6.129-34.317 34.728 16.639-40.857 17.678" fill="#001027"/><path d="m921.35 24.959 28.6-1.04 6.128 17.679-34.728-16.639" fill="#00081b"/><path d="m917.26 499.17 5.108-31.198 34.73 33.278-39.838-2.08" fill="#041e39"/><path d="m944.84 532.45-27.58-33.278 39.838 2.08-12.258 31.198" fill="#031b35"/><path d="m956.08 371.26-30.642-49.916 31.665-4.16-1.023 54.076" fill="#01122e"/><path d="m957.1 317.18-6.129-61.357 6.129 61.357" fill="#000922"/><path d="m956.08 371.26 1.023-54.076-1.023 54.076" fill="#000e29"/><path d="m925.44 321.34 6.128-23.919 25.537 19.759-31.665 4.16" fill="#01122e"/><path d="m957.1 317.18-31.665 4.16 31.665-4.16" fill="#00102a"/><path d="m908.07 220.47 42.902-41.597 7.149 44.717-50.051-3.12" fill="#011631"/><path d="m950.97 255.82-42.902-35.357 50.051 3.12-7.149 32.237" fill="#071f3b"/><path d="m950.97 178.87-32.687-15.599 49.029-22.879-16.342 38.478" fill="#00122a"/><path d="m918.28 163.27-9.193-58.237 58.222 35.358-49.029 22.879" fill="#162737"/><path d="m909.09 105.03 24.514-10.399 33.708 45.757-58.222-35.358" fill="#03172f"/></g><g clip-path="url(#d)"><path d="m956.08 41.598-6.128-17.679 17.364-13.52-11.236 31.199" fill="#000f24"/><path d="m949.95 23.919-13.279-25.999l30.643 12.479-17.364 13.52" fill="#001024"/></g><g><path d="m957.1 317.18-6.129-61.357 18.385 37.439-12.256 23.918" fill="#00112b"/><path d="m957.1 317.18l12.256-23.918-12.256 23.918" fill="#000922"/><path d="m957.1 317.18-25.537-19.759 37.793-4.159-12.256 23.918" fill="#000e28"/><path d="m937.69 274.54 13.28-18.719 18.385 37.439-31.665-18.72" fill="#001a35"/><path d="m950.97 255.82 6.129 61.357 12.256-23.918-18.385-37.439" fill="#00112b"/><path d="m931.56 297.42 6.128-22.879 31.665 18.72-37.793 4.159" fill="#00112b"/><path d="m949.95 603.16 4.085-14.559 20.43 22.879-24.515-8.32" fill="#02182f"/><path d="m910.11 625 39.837-21.839 24.515 8.32l-64.352 13.519" fill="#031b33"/><path d="m967.31 140.39-33.708-45.757 40.859 9.359-7.151 36.398" fill="#02142c"/><path d="m954.03 588.6v-32.238l25.537 22.879-25.537 9.359" fill="#000e23"/><path d="m974.46 611.48-20.43-22.879 25.537-9.359-5.107 32.238" fill="#001127"/><path d="m954.03 556.36-9.192-23.918 36.772-6.24-27.58 30.158" fill="#000e25"/><path d="m944.84 532.45 12.258-31.198 24.514 24.958-36.772 6.24" fill="#001832"/><path d="m950.97 255.82 7.149-32.237 26.559 41.598-33.708-9.361" fill="#001029"/><path d="m969.36 293.26-18.385-37.439 33.708 9.361-15.323 28.078" fill="#00142d"/><path d="m958.12 223.59-7.149-44.717 33.708-8.32-26.559 53.037" fill="#01172f"/><path d="m950.97 178.87 16.342-38.478 17.366 30.158-33.708 8.32" fill="#000a20"/><path d="m933.6 94.634 22.472-53.036 28.602 37.437-51.074 15.599" fill="#01061a"/><path d="m974.46 103.99-40.859-9.359 51.074-15.599-10.215 24.958" fill="#000316"/><path d="m981.61 526.21-24.514-24.958 28.599-13.519-4.085 38.477" fill="#00041a"/><path d="m922.37 467.97 22.472-40.557 40.857 60.316-63.329-19.759" fill="#001834"/><path d="m957.1 501.25-34.73-33.278 63.329 19.759-28.599 13.519" fill="#011935"/><path d="m969.36 293.26 15.323-28.078 1.02 13.518-16.343 14.56" fill="#00102a"/><path d="m944.84 427.41 11.235-56.157 30.645 45.758-41.88 10.399" fill="#00102a"/></g><g clip-path="url(#c)"><path d="m956.08 371.26 20.429 3.12 10.216 42.638-30.645-45.758" fill="#000d27"/><path d="m967.31 10.399-30.643-12.479l52.094 5.2-21.451 7.279" fill="#00081b"/></g><g><path d="m984.68 79.035-28.602-37.437 37.794-3.12-9.192 40.557" fill="#000417"/><path d="m956.08 41.598 11.236-31.199 26.558 28.079-37.794 3.12" fill="#000b1f"/><path d="m967.31 10.399 21.451-7.279 5.107 35.358-26.558-28.079" fill="#000110"/><path d="m969.36 293.26 16.343-14.56 10.215 60.317-26.558-45.757" fill="#010920"/><path d="m957.1 317.18 12.256-23.918 26.558 45.757l-38.814-21.839" fill="#00031c"/><path d="m956.08 371.26 1.023-54.076 38.814 21.839-39.837 32.237" fill="#010822"/><path d="m976.51 374.38-20.429-3.12 39.837-32.237-19.408 35.357" fill="#021a36"/><path d="m979.57 579.24-25.537-22.879 45.966-13.519-20.429 36.398" fill="#00051b"/></g><g clip-path="url(#b)"><path d="m954.03 556.36 27.58-30.158 18.386 16.639-45.966 13.519" fill="#010d25"/><path d="m984.68 79.035 9.192-40.557 12.259 1.039-21.451 39.518" fill="#0d1f37"/><path d="m993.87 38.478-5.107-35.358 17.366 36.397-12.259-1.039" fill="#011023"/><path d="m984.68 265.18-26.559-41.598 49.03-4.16-22.471 45.758" fill="#010012"/><path d="m958.12 223.59 26.559-53.037 22.471 48.877-49.03 4.16" fill="#000b21"/><path d="m984.68 79.035 21.451-39.518 1.02 49.917-22.471-10.399" fill="#01010d"/><path d="m974.46 103.99 10.215-24.958 22.471 10.399-32.686 14.559" fill="#000719"/><path d="m981.61 526.21 4.085-38.477 21.451 6.239-25.536 32.238" fill="#010d23"/><path d="m1e3 542.84-18.386-16.639 25.536-32.238-7.15 48.877" fill="#041a32"/><path d="m1e3 542.84 7.15-48.877v53.037l-7.15-4.16" fill="#0b233d"/><path d="m979.57 579.24 20.429-36.398 7.15 4.16-27.579 32.238" fill="#000518"/><path d="m995.91 339.02-10.215-60.317 22.471-21.839-12.256 82.156" fill="#122d4b"/><path d="m985.7 278.7-1.02-13.518 23.491-8.321-22.471 21.839" fill="#00142d"/><path d="m984.68 265.18 22.471-45.758 1.02 37.437-23.491 8.321" fill="#01071d"/><path d="m1007.2 219.43-22.471-48.877 23.491 10.4-1.02 38.477" fill="#010318"/><path d="m1008.2 180.95-23.491-10.4 23.491-31.198v41.598" fill="#01000e"/><path d="m984.68 170.55-17.366-30.158 40.857-1.04-23.491 31.198" fill="#000f24"/><path d="m967.31 140.39 7.151-36.398 33.706 35.358-40.857 1.04" fill="#05172f"/><path d="m974.46 103.99 32.686-14.559 1.02 49.917-33.706-35.358" fill="#000f24"/><path d="m995.91 339.02 12.256-82.156v106.07l-12.256-23.918" fill="#00061e"/><path d="m976.51 374.38 19.408-35.357 12.256 23.918-31.664 11.439" fill="#001731"/><path d="m986.72 417.01-10.216-42.638 31.664 31.198-21.448 11.44" fill="#000c24"/><path d="m976.51 374.38 31.664-11.439v42.637l-31.664-31.198" fill="#001530"/><path d="m986.72 417.01 21.448-11.44v44.717l-21.448-33.277" fill="#01000e"/><path d="m1007.2 493.97-21.451-6.239 22.471-37.438-1.02 43.677" fill="#000014"/><path d="m985.7 487.73-40.857-60.316 63.328 22.878-22.471 37.438" fill="#000a23"/><path d="m944.84 427.41 41.88-10.399 21.448 33.277-63.328-22.878" fill="#00061e"/><path d="m974.46 611.48 5.107-32.238 29.619 56.156-34.726-23.918" fill="#051b32"/><path d="m979.57 579.24 27.579-32.238 2.04 88.394-29.619-56.156" fill="#000e23"/><path d="m910.11 625 64.352-13.519 34.726 23.918l-99.078-10.399" fill="#01132b"/><path d="m806.95 629.16 103.17-4.16 99.078 10.399-202.24-6.239" fill="#041c34"/><path d="m1006.1 39.517-17.366-36.397l20.426-17.68-3.06 54.077" fill="#000417"/><path d="m988.76 3.12-52.094-5.2 72.52-12.48-20.426 17.68" fill="#00000c"/></g></g><g opacity=".346"><rect x="-3.0198e-14" y="1.75e-5" width="1333.3" height="833.32" opacity=".81387" stroke-width=".99942"/></g></svg>
